/* XPM */
static char * start_semi_solid_grey_xpm[] = {
"24 24 8 1",
" 	c None",
".	c #3B3B38",
"+	c #3C3B37",
"@	c #3B3C39",
"#	c #2195F3",
"$	c #3B3B37",
"%	c #3B3D3C",
"&	c #3B3C3A",
".+++++++++@++@+++++++++.",
"+#########+$$+#########+",
"+##########++##########+",
"+######################+",
"+###++++++####++++++###+",
"+###+%@@@++###+@@@%+###+",
"+###+@+++++##+++++@+###+",
"+###+@+++++##+++++@+###+",
"+###+@+++++##+++++&+###+",
"+###+++++++##+++++++###+",
"@+####+++++##++++++###+@",
"+$+##################+$+",
"+$+##################+$+",
"@+###++++++##+++++####+@",
"+###+++++++##+++++++###+",
"+###+&+++++##+++++@+###+",
"+###+@+++++##+++++@+###+",
"+###+&+++++##+++++&+###+",
"+###+%@@@+###++&@@%+###+",
"+###++++++####++++++###+",
"+######################+",
"+##########++##########+",
"+#########+$$+#########+",
".+++++++++@++@+++++++++."};
