/* XPM */
static char *maximizeA_xpm[] = {
"26 58 24 1",
" 	c None",
"B	c #2D2D2D",
"C	c #7D7D7D",
"D	c #D6D6D6",
"E	c #7A7A7A",
"F	c #797979",
"G	c #5F5F5F",
"H	c #434343",
"I	c #575757",
"J	c #636363",
"K	c #676767",
"L	c #565656",
"M	c #3B3B3B",
"N	c #5E5E5E",
"O	c #696969",
"P	c #3A3A3A",
"Q	c #666666",
"R	c #424242",
"S	c #444444",
"T	c #585858",
"U	c #363636",
"V	c #353535",
"W	c #646464",
"X	c #626262",
"BBBBBBBBBBBBBBBBBBBBBBBBBB",
"BBBBBBBBBBBBBBBBBBBBBBBBBB",
"BBBBBBBBBBBBBBBBBBBBBBBBBB",
"BBBBBBBBBBBBBBBBBBBBBBBBBB",
"BBBBBBBBBBBBBBBBBBBBBBBBBB",
"BBBBBBBBBBBBBBBBBBBBBBBBBB",
"BBBBBBBBBBBBCCBBBBBBBBBBBB",
"BBBBBBBBBBBCDDCBBBBBBBBBBB",
"BBBBBBBBBBEDCFDCBBBBBBBBBB",
"BBBBBBBBBEDCBBFDCBBBBBBBBB",
"BBBBBBBBEDCBBBBFDCBBBBBBBB",
"BBBBBBBGDCBBBBBBCDGBBBBBBB",
"BBBBBBBBGBBBBBBBBGBBBBBBBB",
"BBBBBBBBBBBBBBBBBBBBBBBBBB",
"BBBBBBBBBBBBBBBBBBBBBBBBBB",
"BBBBBBBBBBBBBBBBBBBBBBBBBB",
"BBBBBBBBBBBBBBBBBBBBBBBBBB",
"BBBBBBBBBBBBBBBBBBBBBBBBBB",
"BBBBBBBBBBBBBBBBBBBBBBBBBB",
"BBBBBBBBBBBBBBBBBBBBBBBBBB",
"BBBBBBBBBBBBBBBBBBBBBBBBBB",
"BBBBBBBBBBBBBBBBBBBBBBBBBB",
"BBBBBBBBBBBBBBBBBBBBBBBBBB",
"BBBBBBBBBBBBBBBBBBBBBBBBBB",
"BBBBBBBBBBBBBBBBBBBBBBBBBB",
"BBBBBBBBBBBBBBBBBBBBBBBBBB",
"BBBBBBBBBBBBBBBBBBBBBBBBBB",
"BBBBBBBBBBBBBBBBBBBBBBBBBB",
"BBBBBBBBBBBBBBBBBBBBBBBBBB",
"BBBBBBBBBBBBBBBBBBBBBBBBBB",
"BBBBBBBBBBBBBBBBBBBBBBBBBB",
"BBBBBBBBBBBBBBBBBBBBBBBBBB",
"BBBBBBBBBBBBBBBBBBBBBBBBBB",
"BBBBBBBBBBBBBBBBBBBBBBBBBB",
"BBBBBBBBBHIJKKJLHBBBBBBBBB",
"BBBBBBBMNOOOOOOOONPBBBBBBB",
"BBBBBBHQOOOOOOOOOOQRBBBBBB",
"BBBBBMQOOOOOOOOOOOOQPBBBBB",
"BBBBBNOOOOOOOOOOOOOONBBBBB",
"BBBBHOOOOOOONNOOOOOOOSBBBB",
"BBBBTOOOOOONUUNOOOOOOIBBBB",
"BBBBJOOOOOGVNGVNOOOOOJBBBB",
"BBBBKOOOOGVNOOGVNOOOOKBBBB",
"BBBBKOOOGVNOOOOGVNOOOKBBBB",
"BBBBJOOWUNOOOOOONUWOOXBBBB",
"BBBBIOOOWOOOOOOOOWOOOTBBBB",
"BBBBHOOOOOOOOOOOOOOOORBBBB",
"BBBBBNOOOOOOOOOOOOOONBBBBB",
"BBBBBPQOOOOOOOOOOOOQPBBBBB",
"BBBBBBRQOOOOOOOOOOQRBBBBBB",
"BBBBBBBPNOOOOOOOONPBBBBBBB",
"BBBBBBBBBSIXKKXIRBBBBBBBBB",
"BBBBBBBBBBBBBBBBBBBBBBBBBB",
"BBBBBBBBBBBBBBBBBBBBBBBBBB",
"BBBBBBBBBBBBBBBBBBBBBBBBBB",
"BBBBBBBBBBBBBBBBBBBBBBBBBB",
"BBBBBBBBBBBBBBBBBBBBBBBBBB",
"BBBBBBBBBBBBBBBBBBBBBBBBBB"
};
