/* XPM */
static char *maximizeI_xpm[] = {
"26 58 21 1",
" 	c None",
"B	c #242424",
"C	c #3E3E3E",
"D	c #656565",
"E	c #3D3D3D",
"F	c #333333",
"G	c #3F3F3F",
"H	c #565656",
"I	c #626262",
"J	c #676767",
"K	c #636363",
"L	c #555555",
"M	c #404040",
"N	c #363636",
"O	c #5D5D5D",
"P	c #696969",
"Q	c #5E5E5E",
"R	c #343434",
"S	c #666666",
"T	c #353535",
"U	c #2F2F2F",
"BBBBBBBBBBBBBBBBBBBBBBBBBB",
"BBBBBBBBBBBBBBBBBBBBBBBBBB",
"BBBBBBBBBBBBBBBBBBBBBBBBBB",
"BBBBBBBBBBBBBBBBBBBBBBBBBB",
"BBBBBBBBBBBBBBBBBBBBBBBBBB",
"BBBBBBBBBBBBBBBBBBBBBBBBBB",
"BBBBBBBBBBBBCCBBBBBBBBBBBB",
"BBBBBBBBBBBCDDCBBBBBBBBBBB",
"BBBBBBBBBBEDCEDCBBBBBBBBBB",
"BBBBBBBBBEDCBBEDCBBBBBBBBB",
"BBBBBBBBEDCBBBBEDCBBBBBBBB",
"BBBBBBBFDCBBBBBBCDFBBBBBBB",
"BBBBBBBBFBBBBBBBBFBBBBBBBB",
"BBBBBBBBBBBBBBBBBBBBBBBBBB",
"BBBBBBBBBBBBBBBBBBBBBBBBBB",
"BBBBBBBBBBBBBBBBBBBBBBBBBB",
"BBBBBBBBBBBBBBBBBBBBBBBBBB",
"BBBBBBBBBBBBBBBBBBBBBBBBBB",
"BBBBBBBBBBBBBBBBBBBBBBBBBB",
"BBBBBBBBBBBBBBBBBBBBBBBBBB",
"BBBBBBBBBBBBBBBBBBBBBBBBBB",
"BBBBBBBBBBBBBBBBBBBBBBBBBB",
"BBBBBBBBBBBBBBBBBBBBBBBBBB",
"BBBBBBBBBBBBBBBBBBBBBBBBBB",
"BBBBBBBBBBBBBBBBBBBBBBBBBB",
"BBBBBBBBBBBBBBBBBBBBBBBBBB",
"BBBBBBBBBBBBBBBBBBBBBBBBBB",
"BBBBBBBBBBBBBBBBBBBBBBBBBB",
"BBBBBBBBBBBBBBBBBBBBBBBBBB",
"BBBBBBBBBBBBBBBBBBBBBBBBBB",
"BBBBBBBBBBBBBBBBBBBBBBBBBB",
"BBBBBBBBBBBBBBBBBBBBBBBBBB",
"BBBBBBBBBBBBBBBBBBBBBBBBBB",
"BBBBBBBBBBBBBBBBBBBBBBBBBB",
"BBBBBBBBBGHIJJKLMBBBBBBBBB",
"BBBBBBBNOPPPPPPPPQRBBBBBBB",
"BBBBBBGSPPPPPPPPPPSEBBBBBB",
"BBBBBNSPPPPPPPPPPPPSTBBBBB",
"BBBBBOPPPPPPPPPPPPPPOBBBBB",
"BBBBGPPPPPPPOOPPPPPPPMBBBB",
"BBBBHPPPPPPOUUOPPPPPPLBBBB",
"BBBBIPPPPPQUOQUOPPPPPKBBBB",
"BBBBJPPPPQUOPPQUOPPPPJBBBB",
"BBBBJPPPQUOPPPPQUOPPPJBBBB",
"BBBBIPPKUOPPPPPPOUKPPIBBBB",
"BBBBHPPPKPPPPPPPPKPPPHBBBB",
"BBBBMPPPPPPPPPPPPPPPPCBBBB",
"BBBBBOPPPPPPPPPPPPPPQBBBBB",
"BBBBBRSPPPPPPPPPPPPSTBBBBB",
"BBBBBBESPPPPPPPPPPSEBBBBBB",
"BBBBBBBROPPPPPPPPOTBBBBBBB",
"BBBBBBBBBMLIJJILCBBBBBBBBB",
"BBBBBBBBBBBBBBBBBBBBBBBBBB",
"BBBBBBBBBBBBBBBBBBBBBBBBBB",
"BBBBBBBBBBBBBBBBBBBBBBBBBB",
"BBBBBBBBBBBBBBBBBBBBBBBBBB",
"BBBBBBBBBBBBBBBBBBBBBBBBBB",
"BBBBBBBBBBBBBBBBBBBBBBBBBB"
};
