/* XPM */
static char *minimizeI_xpm[] = {
"26 58 21 1",
" 	c None",
"B	c #242424",
"C	c #333333",
"D	c #656565",
"E	c #3E3E3E",
"F	c #3D3D3D",
"G	c #3F3F3F",
"H	c #565656",
"I	c #626262",
"J	c #676767",
"K	c #636363",
"L	c #555555",
"M	c #404040",
"N	c #363636",
"O	c #5D5D5D",
"P	c #696969",
"Q	c #5E5E5E",
"R	c #343434",
"S	c #666666",
"T	c #353535",
"U	c #2F2F2F",
"BBBBBBBBBBBBBBBBBBBBBBBBBB",
"BBBBBBBBBBBBBBBBBBBBBBBBBB",
"BBBBBBBBBBBBBBBBBBBBBBBBBB",
"BBBBBBBBBBBBBBBBBBBBBBBBBB",
"BBBBBBBBBBBBBBBBBBBBBBBBBB",
"BBBBBBBBBBBBBBBBBBBBBBBBBB",
"BBBBBBBBBBBBBBBBBBBBBBBBBB",
"BBBBBBBBCBBBBBBBBCBBBBBBBB",
"BBBBBBBCDEBBBBBBEDCBBBBBBB",
"BBBBBBBBFDEBBBBFDEBBBBBBBB",
"BBBBBBBBBFDEBBFDEBBBBBBBBB",
"BBBBBBBBBBFDEFDEBBBBBBBBBB",
"BBBBBBBBBBBEDDEBBBBBBBBBBB",
"BBBBBBBBBBBBEEBBBBBBBBBBBB",
"BBBBBBBBBBBBBBBBBBBBBBBBBB",
"BBBBBBBBBBBBBBBBBBBBBBBBBB",
"BBBBBBBBBBBBBBBBBBBBBBBBBB",
"BBBBBBBBBBBBBBBBBBBBBBBBBB",
"BBBBBBBBBBBBBBBBBBBBBBBBBB",
"BBBBBBBBBBBBBBBBBBBBBBBBBB",
"BBBBBBBBBBBBBBBBBBBBBBBBBB",
"BBBBBBBBBBBBBBBBBBBBBBBBBB",
"BBBBBBBBBBBBBBBBBBBBBBBBBB",
"BBBBBBBBBBBBBBBBBBBBBBBBBB",
"BBBBBBBBBBBBBBBBBBBBBBBBBB",
"BBBBBBBBBBBBBBBBBBBBBBBBBB",
"BBBBBBBBBBBBBBBBBBBBBBBBBB",
"BBBBBBBBBBBBBBBBBBBBBBBBBB",
"BBBBBBBBBBBBBBBBBBBBBBBBBB",
"BBBBBBBBBBBBBBBBBBBBBBBBBB",
"BBBBBBBBBBBBBBBBBBBBBBBBBB",
"BBBBBBBBBBBBBBBBBBBBBBBBBB",
"BBBBBBBBBBBBBBBBBBBBBBBBBB",
"BBBBBBBBBBBBBBBBBBBBBBBBBB",
"BBBBBBBBBGHIJJKLMBBBBBBBBB",
"BBBBBBBNOPPPPPPPPQRBBBBBBB",
"BBBBBBGSPPPPPPPPPPSFBBBBBB",
"BBBBBNSPPPPPPPPPPPPSTBBBBB",
"BBBBBOPPPPPPPPPPPPPPOBBBBB",
"BBBBGPPPPPPPPPPPPPPPPMBBBB",
"BBBBHPPPKPPPPPPPPKPPPLBBBB",
"BBBBIPPKUOPPPPPPOUKPPKBBBB",
"BBBBJPPPQUOPPPPQUOPPPJBBBB",
"BBBBJPPPPQUOPPQUOPPPPJBBBB",
"BBBBIPPPPPQUOQUOPPPPPIBBBB",
"BBBBHPPPPPPOUUOPPPPPPHBBBB",
"BBBBMPPPPPPPOOPPPPPPPEBBBB",
"BBBBBOPPPPPPPPPPPPPPQBBBBB",
"BBBBBRSPPPPPPPPPPPPSTBBBBB",
"BBBBBBFSPPPPPPPPPPSFBBBBBB",
"BBBBBBBROPPPPPPPPOTBBBBBBB",
"BBBBBBBBBMLIJJILEBBBBBBBBB",
"BBBBBBBBBBBBBBBBBBBBBBBBBB",
"BBBBBBBBBBBBBBBBBBBBBBBBBB",
"BBBBBBBBBBBBBBBBBBBBBBBBBB",
"BBBBBBBBBBBBBBBBBBBBBBBBBB",
"BBBBBBBBBBBBBBBBBBBBBBBBBB",
"BBBBBBBBBBBBBBBBBBBBBBBBBB"
};
