/* XPM */
static char *restoreA_xpm[] = {
"26 58 24 1",
" 	c None",
"B	c #2D2D2D",
"C	c #393939",
"D	c #BEBEBE",
"E	c #373737",
"F	c #BCBCBC",
"G	c #C1C1C1",
"H	c #3C3C3C",
"I	c #434343",
"J	c #575757",
"K	c #636363",
"L	c #676767",
"M	c #565656",
"N	c #3B3B3B",
"O	c #5E5E5E",
"P	c #696969",
"Q	c #3A3A3A",
"R	c #666666",
"S	c #424242",
"T	c #686868",
"U	c #474747",
"V	c #444444",
"W	c #585858",
"X	c #626262",
"BBBBBBBBBBBBBBBBBBBBBBBBBB",
"BBBBBBBBBBBBBBBBBBBBBBBBBB",
"BBBBBBBBBBBBBBBBBBBBBBBBBB",
"BBBBBBBBBBBBBBBBBBBBBBBBBB",
"BBBBBBBBBBBBCCBBBBBBBBBBBB",
"BBBBBBBBBBBCDDCBBBBBBBBBBB",
"BBBBBBBBBBCDDDDCBBBBBBBBBB",
"BBBBBBBBBEFGHEFGHBBBBBBBBB",
"BBBBBBBBEFGHBBEFGHBBBBBBBB",
"BBBBBBBCDDCBBBBCDDCBBBBBBB",
"BBBBBBBCDDCBBBBCDDCBBBBBBB",
"BBBBBBBBEFGHBBEFGHBBBBBBBB",
"BBBBBBBBBEFGHEFGHBBBBBBBBB",
"BBBBBBBBBBCDDDDCBBBBBBBBBB",
"BBBBBBBBBBBCDDCBBBBBBBBBBB",
"BBBBBBBBBBBBCCBBBBBBBBBBBB",
"BBBBBBBBBBBBBBBBBBBBBBBBBB",
"BBBBBBBBBBBBBBBBBBBBBBBBBB",
"BBBBBBBBBBBBBBBBBBBBBBBBBB",
"BBBBBBBBBBBBBBBBBBBBBBBBBB",
"BBBBBBBBBBBBBBBBBBBBBBBBBB",
"BBBBBBBBBBBBBBBBBBBBBBBBBB",
"BBBBBBBBBBBBBBBBBBBBBBBBBB",
"BBBBBBBBBBBBBBBBBBBBBBBBBB",
"BBBBBBBBBBBBBBBBBBBBBBBBBB",
"BBBBBBBBBBBBBBBBBBBBBBBBBB",
"BBBBBBBBBBBBBBBBBBBBBBBBBB",
"BBBBBBBBBBBBBBBBBBBBBBBBBB",
"BBBBBBBBBBBBBBBBBBBBBBBBBB",
"BBBBBBBBBBBBBBBBBBBBBBBBBB",
"BBBBBBBBBBBBBBBBBBBBBBBBBB",
"BBBBBBBBBBBBBBBBBBBBBBBBBB",
"BBBBBBBBBBBBBBBBBBBBBBBBBB",
"BBBBBBBBBBBBBBBBBBBBBBBBBB",
"BBBBBBBBBIJKLLKMIBBBBBBBBB",
"BBBBBBBNOPPPPPPPPOQBBBBBBB",
"BBBBBBIRPPPPPPPPPPRSBBBBBB",
"BBBBBNRPPPPPTTPPPPPRQBBBBB",
"BBBBBOPPPPPTUUTPPPPPOBBBBB",
"BBBBIPPPPPTUUUUTPPPPPVBBBB",
"BBBBWPPPPTUVTTUVTPPPPJBBBB",
"BBBBKPPPTUVTPPTUVTPPPKBBBB",
"BBBBLPPTUUTPPPPTUUTPPLBBBB",
"BBBBLPPTUUTPPPPTUUTPPLBBBB",
"BBBBKPPPTUVTPPTUVTPPPXBBBB",
"BBBBJPPPPTUVTTUVTPPPPWBBBB",
"BBBBIPPPPPTUUUUTPPPPPSBBBB",
"BBBBBOPPPPPTUUTPPPPPOBBBBB",
"BBBBBQRPPPPPTTPPPPPRQBBBBB",
"BBBBBBSRPPPPPPPPPPRSBBBBBB",
"BBBBBBBQOPPPPPPPPOQBBBBBBB",
"BBBBBBBBBVJXLLXJSBBBBBBBBB",
"BBBBBBBBBBBBBBBBBBBBBBBBBB",
"BBBBBBBBBBBBBBBBBBBBBBBBBB",
"BBBBBBBBBBBBBBBBBBBBBBBBBB",
"BBBBBBBBBBBBBBBBBBBBBBBBBB",
"BBBBBBBBBBBBBBBBBBBBBBBBBB",
"BBBBBBBBBBBBBBBBBBBBBBBBBB"
};
