/* XPM */
static char *frameATL_xpm[] = {
"5 34 3 1",
" 	c None",
"1	c #838383",
"2	c #2D2D2D",
"     ",
"     ",
"     ",
"     ",
"   11",
"  122",
" 1222",
"12222",
"12222",
"12222",
"12222",
"12222",
"12222",
"12222",
"12222",
"12222",
"12222",
"12222",
"12222",
"12222",
"12222",
"12222",
"12222",
"12222",
"12222",
"12222",
"12222",
"12222",
"12222",
"12222",
"12222",
"12222",
"12222",
"12222"
};
