/* XPM */
static char * minimizeIO_xpm[] = {
"13 40 4 1",
" 	c None",
".	c #030708",
"+	c #FFFFFF",
"@	c #5F5F5F",
".............",
".............",
".............",
".............",
".......+.....",
".......+.....",
".....+.+++...",
".....+.......",
"...+.+++.....",
"...+.........",
"...+++.......",
".............",
".............",
".............",
".............",
".............",
"@@@@@@@@@@@@@",
"@@@@@@@@@@@@@",
"@@@@@@@@@@@@@",
"@@@@@@@@@@@@@",
".............",
".............",
".............",
".............",
".......@.....",
".......@.....",
".....@.@@@...",
".....@.......",
"...@.@@@.....",
"...@.........",
"...@@@.......",
".............",
".............",
".............",
".............",
".............",
"@@@@@@@@@@@@@",
"@@@@@@@@@@@@@",
"@@@@@@@@@@@@@",
"@@@@@@@@@@@@@"};
