/* XPM */
static char * restoreO_xpm[] = {
"13 40 18 1",
" 	c None",
".	c #020902",
"+	c #020804",
"@	c #030804",
"#	c #030706",
"$	c #050706",
"%	c #050608",
"&	c #060709",
"*	c #000000",
"=	c #FFFFFF",
"-	c #060700",
";	c #070601",
">	c #060500",
",	c #060600",
"'	c #0C0700",
")	c #0E0600",
"!	c #0D0700",
"~	c #FFCB00",
"..+@+@+@.@...",
"###$#$#$#$###",
"##%&%%%%#%###",
"*************",
"*************",
"*******===***",
"*********=***",
"*****===*=***",
"*******=*****",
"***===*=*****",
"*****=*******",
"*****=*******",
"*************",
"$$%%%%%%$%$$$",
"--;;;;>,-,---",
"'')!!))!'!'''",
"~~~~~~~~~~~~~",
"~~~~~~~~~~~~~",
"~~~~~~~~~~~~~",
"~~~~~~~~~~~~~",
"..+@+@+@.@...",
"###$#$#$#$###",
"##%&%%%%#%###",
"*************",
"*************",
"*******~~~***",
"*********~***",
"*****~~~*~***",
"*******~*****",
"***~~~*~*****",
"*****~*******",
"*****~*******",
"*************",
"$$%%%%%%$%$$$",
"--;;;;>,-,---",
"'')!!))!'!'''",
"~~~~~~~~~~~~~",
"~~~~~~~~~~~~~",
"~~~~~~~~~~~~~",
"~~~~~~~~~~~~~"};
