/* XPM */
static char * titleIT_xpm[] = {
"8 20 4 1",
" 	c None",
".	c #000000",
"+	c #5F5F5F",
"@	c #FFCB00",
"........",
"........",
"........",
"........",
"........",
"........",
"........",
"........",
"........",
"........",
"........",
"........",
"........",
"........",
"........",
"........",
"++++++++",
"@@@@@@@@",
"++++++++",
"++++++++"};
