/* XPM */
static char * titleAP_xpm[] = {
"8 20 21 1",
" 	c None",
".	c #020804",
"+	c #030804",
"@	c #020902",
"#	c #030706",
"$	c #050706",
"%	c #050608",
"&	c #060709",
"*	c #05060A",
"=	c #030708",
"-	c #040905",
";	c #070601",
">	c #060500",
",	c #060600",
"'	c #060700",
")	c #060701",
"!	c #0E0600",
"~	c #0D0700",
"{	c #0C0700",
"]	c #090800",
"^	c #FFCB00",
".+.+.+@@",
"#$#$#$#@",
"%&%%%%#+",
"%%%%%%#+",
"%%%%%%#+",
"%%%%%%#+",
"%%%%%%#+",
"%%%%%%#+",
"%%%%%%#+",
"***==%#+",
"***==%$+",
"%%%%%%$+",
"%%%%%%$+",
"%%%%%%$-",
";;;;>,')",
"!~~!!~{]",
"^^^^^^^^",
"^^^^^^^^",
"^^^^^^^^",
"^^^^^^^^"};
