/* XPM */
static char * frameATR_xpm[] = {
"5 34 3 1",
" 	c None",
".	c #838383",
"+	c #2D2D2D",
"     ",
"     ",
"     ",
"     ",
"..   ",
"++.  ",
"+++. ",
"+++..",
"+++..",
"+++..",
"+++..",
"+++..",
"+++..",
"+++..",
"+++..",
"+++..",
"+++..",
"+++..",
"+++..",
"+++..",
"+++..",
"+++..",
"+++..",
"+++..",
"+++..",
"+++..",
"+++..",
"+++..",
"+++..",
"+++..",
"+++..",
"+++..",
"+++..",
"+++.."};
