/* XPM */
static char * collapse_xpm[] = {
"9 20 3 1",
" 	c None",
".	c #050608",
"+	c #B2B2B2",
".........",
".........",
"..+..+...",
".........",
".........",
"..+..+...",
".........",
".........",
"..+..+...",
".........",
".........",
"..+..+...",
".........",
".........",
"..+..+...",
".........",
".........",
"..+..+...",
".........",
"........."};
