/* XPM */
static char * desktop_xpm[] = {
"20 20 3 1",
" 	c None",
".	c #050608",
"+	c #8F8F8F",
"                    ",
"                    ",
"                    ",
"  ................  ",
"  .++++++++++++++.  ",
"  .+............+.  ",
"  .+.++++++++++.+.  ",
"  .+.++++++++++.+.  ",
"  .+.++++++++++.+.  ",
"  .+.++++++++++.+.  ",
"  .+.++++++++++.+.  ",
"  .+.++++++++++.+.  ",
"  .+.++++++++++.+.  ",
"  .+............+.  ",
"  .++++++++++++++.  ",
"  ................  ",
"                    ",
"                    ",
"                    ",
"                    "};
