/* XPM */
static char * icewm_xpm[] = {
"20 20 3 1",
" 	c None",
".	c #000000",
"+	c #8F8F8F",
"....................",
"....................",
"....................",
"....................",
"....++++++++++++....",
"....................",
"....++++++++++++....",
"....................",
"....++++++++++++....",
"....................",
"....++++++++++++....",
"....................",
"....++++++++++++....",
"....................",
"....++++++++++++....",
"....................",
"....................",
"....................",
"....................",
"...................."};
