/* XPM */
static char * taskbuttonactive_xpm[] = {
"1 23 3 1",
" 	c None",
".	c #050608",
"+	c #F6F65D",
".",
".",
".",
".",
".",
".",
".",
".",
".",
".",
".",
".",
".",
".",
".",
".",
".",
".",
".",
".",
"+",
"+",
"+"};
