/* XPM */
static char * maximizeA_xpm[] = {
"24 54 65 1",
" 	c None",
".	c #3B3C37",
"+	c #30312C",
"@	c #2C2E28",
"#	c #2D2E29",
"$	c #AFAFAD",
"%	c #D6D6D5",
"&	c #D1D1D0",
"*	c #2D2E28",
"=	c #D7D8D7",
"-	c #FFFFFF",
";	c #DBDBDB",
">	c #AAABA8",
",	c #7C7D7A",
"'	c #82827F",
")	c #E1E1E1",
"!	c #6F706C",
"~	c #282924",
"{	c #E0E1E0",
"]	c #767774",
"^	c #33342E",
"/	c #E1E1E0",
"(	c #70716D",
"_	c #292A25",
":	c #31322D",
"<	c #E2E2E1",
"[	c #ACACAA",
"}	c #7B7C79",
"|	c #81817E",
"1	c #A8A8A6",
"2	c #D8D8D7",
"3	c #D7D7D6",
"4	c #30312B",
"5	c #2C2D28",
"6	c #3A3B36",
"7	c #3C3D37",
"8	c #2D2D37",
"9	c #1D1D2B",
"0	c #191927",
"a	c #1A1A28",
"b	c #21212B",
"c	c #3D3E38",
"d	c #A5A5AD",
"e	c #D1D1D5",
"f	c #CBCBD0",
"g	c #D0D0D5",
"h	c #AAABAD",
"i	c #31322C",
"j	c #191928",
"k	c #D2D2D6",
"l	c #CCCCD0",
"m	c #D6D6DA",
"n	c #ABABA8",
"o	c #DCDBE0",
"p	c #70716C",
"q	c #DBDBE0",
"r	c #777874",
"s	c #71716D",
"t	c #181827",
"u	c #DCDCE1",
"v	c #ADADAA",
"w	c #3B3D37",
"x	c #23232C",
"y	c #A3A4A6",
"z	c #D8D9D7",
"........................",
"........................",
"........................",
"........................",
"........................",
"........................",
"......+@########@+......",
".....+$%&&&&&&&&%$+.....",
".....*=----------=*.....",
".....#&----------&#.....",
".....#;>,'''''',>;#.....",
".....#)!~++++++~!)#.....",
".....#{]^......^]{#.....",
".....#{]^......^]{#.....",
".....#{]^......^]{#.....",
".....#{]^......^]{#.....",
".....#/(_::::::_(/#.....",
".....*<[}||||||}[<*.....",
".....:122333333221:.....",
"......455555555554......",
"........................",
"........................",
"........................",
"........................",
"........................",
"........................",
"........................",
"........................",
"........................",
"........................",
"........................",
"........................",
"....677777777777776.....",
"....7890aaaaaaaa0bc.....",
"....79deffffffffghi.....",
"....7jk----------2*.....",
"....7al----------&#.....",
"....7amn,'''''',>;#.....",
"....7aop~++++++~!)#.....",
"....7aqr^......^]{#.....",
"....7aqr^......^]{#.....",
"....7aqr^......^]{#.....",
"....7aqr^......^]{#.....",
"....7aqs_::::::_(/#.....",
"....7tuv}||||||}[<*.....",
"....wxyz2333333221:.....",
"....6c455555555554......",
"........................",
"........................",
"........................",
"........................",
"........................",
"........................",
"........................"};
