/* XPM */
static char * start_xpm[] = {
"65 26 337 2",
"  	c #242322",
". 	c #1E1D1C",
"+ 	c #13110F",
"@ 	c #131110",
"# 	c #171514",
"$ 	c #222120",
"% 	c #201E1D",
"& 	c #171614",
"* 	c #1D1C1A",
"= 	c #7E7D7D",
"- 	c #B7B7B7",
"; 	c #B7B7B6",
"> 	c #AAAAAA",
", 	c #575756",
"' 	c #262524",
") 	c #727271",
"! 	c #B9B9B9",
"~ 	c #A6A6A6",
"{ 	c #535252",
"] 	c #232221",
"^ 	c #31302F",
"/ 	c #797878",
"( 	c #DBDBDB",
"_ 	c #F6F6F6",
": 	c #C2C2C2",
"< 	c #555454",
"[ 	c #5A5958",
"} 	c #DEDEDD",
"| 	c #ECECEC",
"1 	c #929292",
"2 	c #22211F",
"3 	c #353433",
"4 	c #504F4E",
"5 	c #292827",
"6 	c #656463",
"7 	c #D9D8D8",
"8 	c #F8F8F8",
"9 	c #BDBDBC",
"0 	c #4C4B4A",
"a 	c #201F1E",
"b 	c #4D4C4C",
"c 	c #CBCBCB",
"d 	c #F2F2F2",
"e 	c #A8A8A7",
"f 	c #3D3C3B",
"g 	c #575656",
"h 	c #2D2C2B",
"i 	c #2D2C2C",
"j 	c #9B9A9A",
"k 	c #CCCCCB",
"l 	c #777675",
"m 	c #211F1E",
"n 	c #707070",
"o 	c #DBDADA",
"p 	c #F8F7F7",
"q 	c #B2B1B1",
"r 	c #353333",
"s 	c #3B3A39",
"t 	c #B4B3B3",
"u 	c #F4F3F3",
"v 	c #B6B6B6",
"w 	c #B3B3B2",
"x 	c #3E3E3D",
"y 	c #A2A2A2",
"z 	c #E7E7E7",
"A 	c #777777",
"B 	c #282726",
"C 	c #7A7979",
"D 	c #E1E0E0",
"E 	c #F3F3F3",
"F 	c #ABABAB",
"G 	c #1D1B1A",
"H 	c #919090",
"I 	c #EDECEC",
"J 	c #C4C3C3",
"K 	c #4F4F4E",
"L 	c #565554",
"M 	c #D6D6D6",
"N 	c #C4C4C4",
"O 	c #424140",
"P 	c #252423",
"Q 	c #3C3C3B",
"R 	c #565555",
"S 	c #302F2F",
"T 	c #808080",
"U 	c #EFEFEF",
"V 	c #8F8F8F",
"W 	c #242321",
"X 	c #6E6E6D",
"Y 	c #E4E4E4",
"Z 	c #D7D7D7",
"` 	c #646463",
" .	c #3E3D3C",
"..	c #676766",
"+.	c #797979",
"@.	c #626261",
"#.	c #353434",
"$.	c #2E2D2C",
"%.	c #525251",
"&.	c #343332",
"*.	c #3F3F3E",
"=.	c #6D6C6C",
"-.	c #727272",
";.	c #4B4B4A",
">.	c #6E6E6E",
",.	c #8D8D8D",
"'.	c #E0E0E0",
").	c #CFCFCE",
"!.	c #787877",
"~.	c #6E6D6D",
"{.	c #6D6D6C",
"].	c #484746",
"^.	c #494848",
"/.	c #414140",
"(.	c #272625",
"_.	c #969695",
":.	c #F0F0F0",
"<.	c #DEDEDE",
"[.	c #585857",
"}.	c #D3D3D3",
"|.	c #E5E5E5",
"1.	c #7C7C7C",
"2.	c #605F5F",
"3.	c #939292",
"4.	c #A4A3A3",
"5.	c #C1C1C0",
"6.	c #CCCCCC",
"7.	c #AEAEAE",
"8.	c #545454",
"9.	c #3B3B3A",
"0.	c #888888",
"a.	c #BEBEBD",
"b.	c #AEAEAD",
"c.	c #6A6969",
"d.	c #C0C0C0",
"e.	c #D3D2D2",
"f.	c #DDDDDD",
"g.	c #E2E2E1",
"h.	c #C8C8C8",
"i.	c #7C7C7B",
"j.	c #1C1B19",
"k.	c #292928",
"l.	c #A9A9A8",
"m.	c #C7C7C7",
"n.	c #EEEEEE",
"o.	c #E3E3E2",
"p.	c #AFAEAE",
"q.	c #A9A9A9",
"r.	c #A8A8A8",
"s.	c #6B6A6A",
"t.	c #6F6F6E",
"u.	c #BCBCBC",
"v.	c #6A6A69",
"w.	c #21201F",
"x.	c #333232",
"y.	c #B0AFAF",
"z.	c #F7F7F7",
"A.	c #C8C8C7",
"B.	c #C6C6C5",
"C.	c #EDEDED",
"D.	c #919191",
"E.	c #1B1A18",
"F.	c #797978",
"G.	c #727171",
"H.	c #333231",
"I.	c #373635",
"J.	c #A5A5A5",
"K.	c #FCFCFC",
"L.	c #AFAFAF",
"M.	c #373736",
"N.	c #CACACA",
"O.	c #FBFBFB",
"P.	c #D5D5D5",
"Q.	c #80807F",
"R.	c #EBEAEA",
"S.	c #D2D2D2",
"T.	c #444342",
"U.	c #151311",
"V.	c #515050",
"W.	c #C5C5C4",
"X.	c #403F3E",
"Y.	c #1E1D1B",
"Z.	c #1F1E1C",
"`.	c #2A2928",
" +	c #9E9E9D",
".+	c #252422",
"++	c #F8F8F7",
"@+	c #F4F4F4",
"#+	c #A4A4A3",
"$+	c #2B2928",
"%+	c #383736",
"&+	c #D9D9D9",
"*+	c #5B5B5A",
"=+	c #B8B8B8",
"-+	c #FFFFFF",
";+	c #A3A3A3",
">+	c #2F2E2D",
",+	c #2E2E2D",
"'+	c #EAEAEA",
")+	c #777776",
"!+	c #565656",
"~+	c #C4C4C3",
"{+	c #888887",
"]+	c #9B9B9A",
"^+	c #1D1C1B",
"/+	c #2B2A29",
"(+	c #A1A0A0",
"_+	c #898988",
":+	c #4D4D4C",
"<+	c #7B7B7B",
"[+	c #807F7F",
"}+	c #959595",
"|+	c #E3E3E3",
"1+	c #666665",
"2+	c #151412",
"3+	c #B2B2B2",
"4+	c #FDFDFD",
"5+	c #706F6F",
"6+	c #F1F1F1",
"7+	c #8B8A8A",
"8+	c #1F1E1D",
"9+	c #585756",
"0+	c #F7F7F6",
"a+	c #979796",
"b+	c #E0DFDF",
"c+	c #F9F9F9",
"d+	c #D8D8D7",
"e+	c #454444",
"f+	c #858585",
"g+	c #CECECD",
"h+	c #E8E8E8",
"i+	c #E6E6E5",
"j+	c #6B6B6B",
"k+	c #141210",
"l+	c #FEFEFE",
"m+	c #666565",
"n+	c #8A8989",
"o+	c #C3C3C3",
"p+	c #878787",
"q+	c #9A9999",
"r+	c #1E1C1B",
"s+	c #444343",
"t+	c #C5C5C5",
"u+	c #E2E2E2",
"v+	c #DADADA",
"w+	c #AAA9A9",
"x+	c #999999",
"y+	c #60605F",
"z+	c #F5F4F4",
"A+	c #646363",
"B+	c #989898",
"C+	c #A7A6A6",
"D+	c #9A9A99",
"E+	c #21201E",
"F+	c #868585",
"G+	c #717070",
"H+	c #201F1D",
"I+	c #181715",
"J+	c #969696",
"K+	c #F4F4F3",
"L+	c #979696",
"M+	c #696969",
"N+	c #F5F5F5",
"O+	c #151312",
"P+	c #949494",
"Q+	c #F7F6F6",
"R+	c #979797",
"S+	c #878786",
"T+	c #BBBABA",
"U+	c #232120",
"V+	c #434241",
"W+	c #7C7B7B",
"X+	c #1F1D1C",
"Y+	c #717171",
"Z+	c #141211",
"`+	c #C9C9C9",
" @	c #444443",
".@	c #5C5B5B",
"+@	c #CFCFCF",
"@@	c #454544",
"#@	c #F1F1F0",
"$@	c #828281",
"%@	c #7B7A7A",
"&@	c #161513",
"*@	c #323131",
"=@	c #E9E9E9",
"-@	c #6C6B6B",
";@	c #E1E1E1",
">@	c #504F4F",
",@	c #1A1917",
"'@	c #999898",
")@	c #424241",
"!@	c #BCBCBB",
"~@	c #DFDFDE",
"{@	c #696968",
"]@	c #3A3938",
"^@	c #595959",
"/@	c #BFBEBE",
"(@	c #C6C6C6",
"_@	c #CDCDCD",
":@	c #5F5F5E",
"<@	c #656564",
"[@	c #8B8B8A",
"}@	c #9B9B9B",
"|@	c #A0A0A0",
"1@	c #9D9D9D",
"2@	c #898989",
"3@	c #FAFAFA",
"4@	c #302F2E",
"5@	c #7F7F7E",
"6@	c #494847",
"7@	c #8D8C8C",
"8@	c #989797",
"9@	c #3E3D3D",
"0@	c #515150",
"a@	c #393938",
"b@	c #828282",
"c@	c #7B7B7A",
"d@	c #50504F",
"e@	c #8E8E8D",
"f@	c #595858",
"g@	c #BABAB9",
"h@	c #40403F",
"i@	c #282725",
"j@	c #BBBBBB",
"k@	c #9F9F9E",
"l@	c #2F2E2E",
"m@	c #5E5E5D",
"n@	c #5C5C5B",
"o@	c #3C3B3A",
"p@	c #393837",
"q@	c #D5D5D4",
"r@	c #878686",
"s@	c #ABAAAA",
"t@	c #A1A1A1",
"u@	c #313030",
"v@	c #2C2B2B",
"                                                                                                                                  ",
"                                                                                                                                  ",
"                                                                                  . + @ # $                     % + & $           ",
"                                                                                * = - ; > , $                 ' ) ! ~ {           ",
"                                                                                ] ^ / ( _ : < '             $ [ } | 1 '           ",
"                                                                ] 2           3 4 5   6 7 8 9 0           a b c d e $             ",
"                                                              $ f g h       i j k l m ' n o p q r       ] s t u v 3 ]             ",
"                                                              s v w x       h y z A a   B C D E F G     h H I J K ]               ",
"                                                              L M N O       P Q R S       5 T | U V W ' X Y Z ` '                 ",
"                   ...C +.@.#.$   $.%.{ &.  *.=.= -.;.2   ' >.,.'.).!.~.{.].^.K /.(.      P ' _.:.<.X [.}.|.1.]                   ",
"                2.3.4.9 5.6.7.8.$ 9.0.a.b.c.d.e.f.g.h.i.j.k.l.m.n.o.p.q.r.s.t.> u.v.w.      P x.y.z.A.B.C.D.E.                    ",
"              ] F.G.H.* I.J.K.L.M.  Q N.O.P.l.Q.=.D.R.S.T.] U.V.M W.X.Y.Z.$ `. +z._..         .+V.c ++@+#+$+]                     ",
"                %+]   P ' s.E &+*+  U.=+-+;+>+$ ] ,+b.'+)+a   !+Z ~+/.      B {+8 ]+^+        P /+(+_ _ _+a                       ",
"                (.:+>.<+[+}+C.|+1+  2+3+4+5+P     k.D.6+7+8+  9+Z N O       B {+0+a+Y.        (.5+b+| c+d+e+$                     ",
"              $ f+g+n.h+|+i+4+h+j+  k+- l+m+P     B n+_ a+.   !+Z o+/.      B p+8 q+r+        s+t+u+n+v+8 w+.+                    ",
"            w.g |.|+x+5+y+Q.z+h+j+  k+- l+A+P     B n+_ }+.   !+Z o+/.      B {+z.B+r+      8+C+'+D+E+F+d |+G+H+                  ",
"            I+J+K+L+# w.$ M+N+h+j+  O+w 4+` P     B n+N+P+.   !+Z N O       B p+Q+R+.     * S+| T+%+U+%+o+4+u.V+                  ",
"            U.;+E W+X+    Y+K.h+j+  Z+v l+` P     B n+N+}+.   K }.`+ @      B {+Q+L+Y.  $ .@o +@@@]   P s.h+#@$@5                 ",
"            ^+%@d L.$.&@*@> 4+=@-@  k+- l+`       B n+_ L+.   f N.;@>@,@8+' B p+z.'@r+] )@!@~@{@P       ]@L.K.Z ^@. ]             ",
"              >+9 I : w+- /@(@_@:@  k+=+-+<@      B [@8 J+X+  $ }@6+u.|@1@^.(.2@3@j ^+H.;+=@D+4@        ] ` v+K.(@5@6@]           ",
"              ] *.7@y 8@7@^.K y+&.  a v.1 9@      P 0@,., ]   ] a@b@1 2@c@]@P d@e@f@  [+z g@h@            i@c@- j@k@*+w.          ",
"                  ' >+l@'                                         P 5 /+P         P m@( M n@$               `.o@/.x h             ",
"                                                                                p@G.q@n.r@*                                       ",
"                                                                              P g s@c t@8+                                        ",
"                                                                              P $.u@v@w.                                          ",
"                                                                                                                                  "};
