/* XPM */
static char * collapse_xpm[] = {
"10 20 2 1",
" 	c None",
".	c #404040",
"  ......  ",
"  ......  ",
" ........ ",
" ........ ",
" ........ ",
" ........ ",
" ........ ",
" ........ ",
" ........ ",
" ........ ",
" ........ ",
" ........ ",
" ........ ",
" ........ ",
" ........ ",
" ........ ",
" ........ ",
"  ......  ",
"  ......  ",
"  ......  "};
