/* XPM */
static char * desktop_xpm[] = {
"21 19 2 1",
" 	c None",
".	c #404040",
"                     ",
"                     ",
".................... ",
".................... ",
".................... ",
".................... ",
".................... ",
".................... ",
".................... ",
".................... ",
".................... ",
".................... ",
".................... ",
".................... ",
".................... ",
".................... ",
".................... ",
".................... ",
"                     "};
