/* XPM */
static char * start_xpm[] = {
"50 20 291 2",
"  	c #242322",
". 	c #232221",
"+ 	c #292828",
"@ 	c #353434",
"# 	c #363635",
"$ 	c #2E2D2C",
"% 	c #2B2B2A",
"& 	c #343434",
"* 	c #2D2D2C",
"= 	c #252423",
"- 	c #474646",
"; 	c #80807F",
"> 	c #9A9A99",
", 	c #868686",
"' 	c #464545",
") 	c #232121",
"! 	c #373635",
"~ 	c #7A7A79",
"{ 	c #939393",
"] 	c #636262",
"^ 	c #2A2928",
"/ 	c #242321",
"( 	c #262524",
"_ 	c #3D3C3B",
": 	c #797978",
"< 	c #C0C0C0",
"[ 	c #D5D5D5",
"} 	c #434241",
"| 	c #7B7A7A",
"1 	c #C9C9C9",
"2 	c #BBBABA",
"3 	c #626161",
"4 	c #242323",
"5 	c #393737",
"6 	c #2F2E2D",
"7 	c #333232",
"8 	c #727271",
"9 	c #7C7C7B",
"0 	c #434242",
"a 	c #7A7979",
"b 	c #CBCACA",
"c 	c #D9D8D8",
"d 	c #939292",
"e 	c #3A3939",
"f 	c #2A2929",
"g 	c #676767",
"h 	c #C0BFBF",
"i 	c #CCCCCC",
"j 	c #7E7E7D",
"k 	c #2D2C2B",
"l 	c #6B6A6A",
"m 	c #5A5A59",
"n 	c #222120",
"o 	c #40403F",
"p 	c #A2A2A2",
"q 	c #B2B2B2",
"r 	c #4A4A49",
"s 	c #CFCECE",
"t 	c #D3D3D3",
"u 	c #878787",
"v 	c #343333",
"w 	c #50504F",
"x 	c #ABAAAA",
"y 	c #8E8D8D",
"z 	c #3B3A39",
"A 	c #3D3C3C",
"B 	c #31302F",
"C 	c #242221",
"D 	c #282726",
"E 	c #272625",
"F 	c #2C2B2B",
"G 	c #383837",
"H 	c #292827",
"I 	c #9A9A9A",
"J 	c #C4C4C3",
"K 	c #787877",
"L 	c #383737",
"M 	c #323231",
"N 	c #6A6A69",
"O 	c #747373",
"P 	c #343332",
"Q 	c #868585",
"R 	c #D4D4D4",
"S 	c #CACACA",
"T 	c #737373",
"U 	c #424241",
"V 	c #959595",
"W 	c #CECECE",
"X 	c #9F9F9E",
"Y 	c #464544",
"Z 	c #6E6D6D",
"` 	c #8B8B8A",
" .	c #959594",
"..	c #8D8D8C",
"+.	c #616060",
"@.	c #2B2A29",
"#.	c #878786",
"$.	c #A2A1A1",
"%.	c #A3A3A3",
"&.	c #828282",
"*.	c #3A3A39",
"=.	c #818180",
"-.	c #D8D8D8",
";.	c #A2A2A1",
">.	c #848484",
",.	c #6C6B6B",
"'.	c #5C5C5B",
").	c #777777",
"!.	c #6B6B6B",
"~.	c #333231",
"{.	c #3B3A3A",
"].	c #959494",
"^.	c #D7D7D7",
"/.	c #B9B9B8",
"(.	c #989897",
"_.	c #CDCDCD",
":.	c #AEAEAE",
"<.	c #505050",
"[.	c #646463",
"}.	c #767575",
"|.	c #B7B7B7",
"1.	c #393938",
"2.	c #919191",
"3.	c #CFCFCE",
"4.	c #BDBDBC",
"5.	c #A9A9A9",
"6.	c #373735",
"7.	c #6C6C6B",
"8.	c #B4B4B4",
"9.	c #D3D2D2",
"0.	c #6F6E6E",
"a.	c #5B5A5A",
"b.	c #595959",
"c.	c #BCBCBC",
"d.	c #555554",
"e.	c #1F1E1D",
"f.	c #4A4948",
"g.	c #AAAAAA",
"h.	c #DDDDDD",
"i.	c #B8B8B8",
"j.	c #5C5C5C",
"k.	c #4B4A4A",
"l.	c #A0A0A0",
"m.	c #E1E1E1",
"n.	c #818181",
"o.	c #DFDFDF",
"p.	c #636363",
"q.	c #484847",
"r.	c #BDBDBD",
"s.	c #474746",
"t.	c #9D9D9D",
"u.	c #C7C7C7",
"v.	c #757474",
"w.	c #3E3E3D",
"x.	c #A6A6A5",
"y.	c #D2D2D2",
"z.	c #1D1C1B",
"A.	c #DAD9D9",
"B.	c #EDEDED",
"C.	c #979797",
"D.	c #535352",
"E.	c #808080",
"F.	c #999898",
"G.	c #B9B9B9",
"H.	c #E6E6E6",
"I.	c #A1A1A1",
"J.	c #292928",
"K.	c #7A7A7A",
"L.	c #DBDBDB",
"M.	c #3F3E3E",
"N.	c #A7A7A7",
"O.	c #CCCBCB",
"P.	c #595858",
"Q.	c #9B9B9B",
"R.	c #C6C6C6",
"S.	c #727272",
"T.	c #21201F",
"U.	c #A3A3A2",
"V.	c #D3D3D2",
"W.	c #616160",
"X.	c #1E1D1B",
"Y.	c #494848",
"Z.	c #A8A7A7",
"`.	c #D8D7D7",
" +	c #EAEAEA",
".+	c #CACAC9",
"++	c #585858",
"@+	c #232220",
"#+	c #C5C5C5",
"$+	c #BBBBBB",
"%+	c #CFCFCF",
"&+	c #A5A5A5",
"*+	c #2C2B2A",
"=+	c #7C7C7C",
"-+	c #DCDCDC",
";+	c #9C9C9C",
">+	c #262525",
",+	c #A4A3A3",
"'+	c #D1D1D1",
")+	c #60605F",
"!+	c #1E1C1B",
"~+	c #8B8A8A",
"{+	c #9E9E9D",
"]+	c #B6B6B6",
"^+	c #E4E4E4",
"/+	c #393838",
"(+	c #787878",
"_+	c #D0D1D0",
":+	c #5A5A5A",
"<+	c #999999",
"[+	c #A6A6A6",
"}+	c #7B7B7A",
"|+	c #D0D0D0",
"1+	c #5F5F5E",
"2+	c #292927",
"3+	c #737272",
"4+	c #D2D1D1",
"5+	c #717171",
"6+	c #C1C1C1",
"7+	c #545453",
"8+	c #676666",
"9+	c #D6D6D6",
"0+	c #777676",
"a+	c #858585",
"b+	c #8B8B8B",
"c+	c #22201F",
"d+	c #EEEEEE",
"e+	c #9C9C9B",
"f+	c #5F5F5F",
"g+	c #979796",
"h+	c #171513",
"i+	c #201F1E",
"j+	c #A3A2A2",
"k+	c #1B1A18",
"l+	c #555454",
"m+	c #B1B1B0",
"n+	c #696969",
"o+	c #979696",
"p+	c #4D4D4C",
"q+	c #656565",
"r+	c #838282",
"s+	c #9E9E9E",
"t+	c #7D7C7C",
"u+	c #3B3B3A",
"v+	c #A4A4A4",
"w+	c #605F5F",
"x+	c #1A1917",
"y+	c #6E6E6E",
"z+	c #525151",
"A+	c #403F3E",
"B+	c #626160",
"C+	c #C3C3C2",
"D+	c #5E5E5D",
"E+	c #E0E0E0",
"F+	c #525251",
"G+	c #353433",
"H+	c #858484",
"I+	c #AFAEAE",
"J+	c #A3A2A3",
"K+	c #8D8C8C",
"L+	c #909090",
"M+	c #6D6D6D",
"N+	c #626261",
"O+	c #ABABAB",
"P+	c #797979",
"Q+	c #4C4C4C",
"R+	c #4F4F4E",
"S+	c #8F8E8E",
"T+	c #656564",
"U+	c #807F7F",
"V+	c #A5A4A4",
"W+	c #565555",
"X+	c #898989",
"Y+	c #343433",
"Z+	c #C2C2C2",
"`+	c #3C3B3A",
" @	c #4F4E4E",
".@	c #444443",
"+@	c #353534",
"@@	c #414140",
"#@	c #383736",
"$@	c #4D4C4B",
"%@	c #C3C3C3",
"&@	c #6B6B6A",
"*@	c #302F2E",
"=@	c #211F1E",
"-@	c #232120",
";@	c #6C6C6C",
">@	c #C2C1C1",
",@	c #717070",
"'@	c #838383",
"                                                                . .                     .           ",
"                                                              + @ # $                 % & * =       ",
"                                                            = - ; > , ' )         . ! ~ { ] ^ /     ",
"                                                  . .       ( _ : < [ > } .       $ | 1 2 3 4       ",
"                                              . ^ 5 6     7 8 9 0 a b c d e .   f g h i j k         ",
"                . .                 . .       . l d m n . o p q r * j s t u v ( w x s y @           ",
"              $ z A B . C D $ E n F z G H n E _ I J K L M ! N O 7 n P Q R S T U V W X U             ",
"          E Y Z `  ...+.@.U T : +.#.$.%.&.U *.=.< -.;.>.,.'.).!.~.. . {.].^./.(._.:.<..             ",
"          * [.}.K , |.< 3 1.2.3.4.5.%.q i 2.6.7.8.9.].0.a.b.5.c.d.e.    f.g.h.h.i.j..               ",
"          D } 0 A k.l.m.2.= n.o.c.p.q.] 4.r.s.B t.u.v.H H w.x.y.3 z.    D | A.B.C.$ .               ",
"          H D.E.{ F.G.H.I.J.K.L.I.6   M.N.O.P.@.Q.R.S.T.  z U.V.W.X.    Y.Z.`. +.+++@+              ",
"        . k.5._.#+$+%+B.&+*+=+-+;+>+. {.,+'+)+J.Q.R.8 T.  z %.t 3 !+  P ~+R.{+]+^+%./+.             ",
"        T.(+_+5.:+q.<+ +[+F }+L.;+( . {.,+|+1+2+Q.R.3+T.  z U.4++.z.( 5+6+:.7+8+|+9+0+E             ",
"        T.a+'+b+c+~.%.d+[+F 9 L.e+( . {.,+|+f+  g+1 (+h+i+z j+y.+.k+l+m+$+n+D ! o+m.]+p+T..         ",
"        . q+#+i.E.r+$+o.s+^ t+-+e+( . u+v+y.w+x+&.%+v+y+z+A+%.t B+o X C+; * . D D+C+E+;+F+k .       ",
"          G+H+I+J+I K+L+M+= N+O+P+= . M E.%.Q+!+R+t.&+S+T+{.U+V+W+X+u.e+A+.     Y+E.Z+|.j `+n       ",
"            6  @P. @6 6 k   6 .@+@    ( ! @@^   = u+R+p+G D #@$@9 %@q 7+n       = #@D+&@d.*@.       ",
"            . i+i+i+. . .   . =@.       -@T.      n i+T.n   *@;@]+>@,@(           . c+n             ",
"                                                            6 j.'@,@7                               ",
"                                                            = @.*@@.                                "};
