/* XPM */
static char * start_menu_xpm[] = {
"24 24 104 2",
"  	c None",
". 	c #323232",
"+ 	c #2D2D2D",
"@ 	c #2A2A2A",
"# 	c #303030",
"$ 	c #2B2B2B",
"% 	c #353535",
"& 	c #484848",
"* 	c #525252",
"= 	c #515151",
"- 	c #3E3E3E",
"; 	c #383838",
"> 	c #4D4D4D",
", 	c #505050",
"' 	c #2F2F2F",
") 	c #ADADAD",
"! 	c #E6E6E6",
"~ 	c #DEDEDE",
"{ 	c #DFDFDF",
"] 	c #767676",
"^ 	c #4E4E4E",
"/ 	c #CBCBCB",
"( 	c #E1E1E1",
"_ 	c #737373",
": 	c #DDDDDD",
"< 	c #2E2E2E",
"[ 	c #414141",
"} 	c #CDCDCD",
"| 	c #FFFFFF",
"1 	c #888888",
"2 	c #555555",
"3 	c #F3F3F3",
"4 	c #565656",
"5 	c #848484",
"6 	c #CCCCCC",
"7 	c #878787",
"8 	c #F2F2F2",
"9 	c #404040",
"0 	c #C1C1C1",
"a 	c #FAFAFA",
"b 	c #FBFBFB",
"c 	c #818181",
"d 	c #535353",
"e 	c #E4E4E4",
"f 	c #FEFEFE",
"g 	c #7E7E7E",
"h 	c #373737",
"i 	c #5C5C5C",
"j 	c #6F6F6F",
"k 	c #6C6C6C",
"l 	c #494949",
"m 	c #3C3C3C",
"n 	c #666666",
"o 	c #6D6D6D",
"p 	c #454545",
"q 	c #4C4C4C",
"r 	c #3F3F3F",
"s 	c #B2B2B2",
"t 	c #EEEEEE",
"u 	c #E5E5E5",
"v 	c #797979",
"w 	c #4F4F4F",
"x 	c #D2D2D2",
"y 	c #E8E8E8",
"z 	c #EDEDED",
"A 	c #B5B5B5",
"B 	c #D0D0D0",
"C 	c #434343",
"D 	c #CACACA",
"E 	c #868686",
"F 	c #F0F0F0",
"G 	c #838383",
"H 	c #BDBDBD",
"I 	c #F5F5F5",
"J 	c #7F7F7F",
"K 	c #F8F8F8",
"L 	c #7C7C7C",
"M 	c #F4F4F4",
"N 	c #FDFDFD",
"O 	c #C0C0C0",
"P 	c #424242",
"Q 	c #363636",
"R 	c #626262",
"S 	c #606060",
"T 	c #3A3A3A",
"U 	c #5B5B5B",
"V 	c #444444",
"W 	c #545454",
"X 	c #656565",
"Y 	c #C3C3C3",
"Z 	c #FCFCFC",
"` 	c #828282",
" .	c #F1F1F1",
"..	c #CECECE",
"+.	c #ABABAB",
"@.	c #E3E3E3",
"#.	c #DBDBDB",
"$.	c #DCDCDC",
"%.	c #757575",
"&.	c #C8C8C8",
"*.	c #464646",
"=.	c #3D3D3D",
"-.	c #4B4B4B",
";.	c #2C2C2C",
"                                                ",
"                                                ",
"      . + @ @ @ # . $ @ @ $ . # @ @ @ + .       ",
"    . % & * = = - ; > = = > ; - , = * & % .     ",
"    ' - ) ! ~ { ] ^ / ( ( / ^ _ : ~ ! ) - '     ",
"    < [ } | | | 1 2 3 | | 3 4 5 | | | } [ <     ",
"    < [ 6 | | | 7 2 8 | | 8 4 5 | | | 6 [ <     ",
"    < 9 0 | a b c d e f f e d g a b | 0 9 <     ",
"    . h i j k k l m n o o n m & k k j i h .     ",
"    . % p > q q m h l q q l h m q q > p % .     ",
"    ' r s t u ! v w x y y x , ] u ! z A [ <     ",
"    < [ } | | | 1 2 3 | | 3 4 5 | | | B C <     ",
"    < [ D | | | E 2 F | | F 2 G | | | } C <     ",
"    ' 9 H f I I J * { K K { * L M I N O P <     ",
"    . Q d R S S p T U S S U T V S S R W Q .     ",
"    . h i j k k l m X o o X m & k k j U h .     ",
"    < 9 Y | Z N ` d ! | | ! d J Z N | Y 9 <     ",
"    < [ 6 | | | 7 2  .| |  .2 5 | | | 6 [ <     ",
"    < [ ..| | | 1 4 M | | M 4 5 | | | } [ <     ",
"    ' - +.@.#.$.%.^ &.~ ~ &.^ _ : ~ ! ) - '     ",
"    . % *., ^ ^ =.h -.w w -.h - , = * & % .     ",
"      . + @ $ $ # . ;.$ $ ;.. # @ @ @ + .       ",
"                                                ",
"                                                "};
