/* XPM */
static char * linux_old _xpm[] = {
"71 24 162 2",
"  	c None",
". 	c #DC0000",
"+ 	c #DB0000",
"@ 	c #DA0000",
"# 	c #DC0303",
"$ 	c #E33737",
"% 	c #EF8E8E",
"& 	c #F5BBBB",
"* 	c #F8D2D2",
"= 	c #F4B8B8",
"- 	c #EA6969",
"; 	c #DF1B1B",
"> 	c #E64E4E",
", 	c #EF9191",
"' 	c #EF8D8D",
") 	c #E23232",
"! 	c #E33A3A",
"~ 	c #E96666",
"{ 	c #E22D2D",
"] 	c #DC0202",
"^ 	c #DC0606",
"/ 	c #EC7E7E",
"( 	c #EC7C7C",
"_ 	c #DC0101",
": 	c #F5BCBC",
"< 	c #FEFCFC",
"[ 	c #FFFFFF",
"} 	c #FDF5F5",
"| 	c #E65050",
"1 	c #EF9090",
"2 	c #E96565",
"3 	c #E54444",
"4 	c #F09999",
"5 	c #EA6A6A",
"6 	c #DC0505",
"7 	c #FBE6E6",
"8 	c #FAE3E3",
"9 	c #E85F5F",
"0 	c #FADFDF",
"a 	c #F2AAAA",
"b 	c #F8D3D3",
"c 	c #FFFEFE",
"d 	c #DE1111",
"e 	c #EB7373",
"f 	c #F9D6D6",
"g 	c #F8D0D0",
"h 	c #F8CFCF",
"i 	c #FAE2E2",
"j 	c #FBE4E4",
"k 	c #F8D1D1",
"l 	c #E75252",
"m 	c #FEFEFE",
"n 	c #FBE5E5",
"o 	c #E96969",
"p 	c #FBE3E3",
"q 	c #FEFAFA",
"r 	c #E02424",
"s 	c #F5B7B7",
"t 	c #FDF7F7",
"u 	c #F8CECE",
"v 	c #F4B7B7",
"w 	c #F3AFAF",
"x 	c #FCEBEB",
"y 	c #DF1A1A",
"z 	c #F09B9B",
"A 	c #EB6E6E",
"B 	c #E86161",
"C 	c #EA6E6E",
"D 	c #FAE0E0",
"E 	c #FEF8F8",
"F 	c #E96767",
"G 	c #DD0D0D",
"H 	c #ED8686",
"I 	c #ED8181",
"J 	c #DC0808",
"K 	c #FBE7E7",
"L 	c #F8D4D4",
"M 	c #DD0B0B",
"N 	c #F2A8A8",
"O 	c #F19F9F",
"P 	c #E85D5D",
"Q 	c #E86262",
"R 	c #E22E2E",
"S 	c #F5BDBD",
"T 	c #E75151",
"U 	c #EB7272",
"V 	c #DD0808",
"W 	c #F2A7A7",
"X 	c #E86060",
"Y 	c #DD1010",
"Z 	c #D90000",
"` 	c #DD0909",
" .	c #FEFDFD",
"..	c #DE1515",
"+.	c #EE8A8A",
"@.	c #E12F2F",
"#.	c #FCEEEE",
"$.	c #FDF6F6",
"%.	c #DE0F0F",
"&.	c #DE1313",
"*.	c #F6C8C8",
"=.	c #E75555",
"-.	c #E85C5C",
";.	c #F9D4D4",
">.	c #F4B5B5",
",.	c #FCEFEF",
"'.	c #DF1C1C",
").	c #EE8B8B",
"!.	c #E23030",
"~.	c #E44343",
"{.	c #F2A6A6",
"].	c #DD0C0C",
"^.	c #DD0E0E",
"/.	c #F5B9B9",
"(.	c #E75858",
"_.	c #F5BEBE",
":.	c #F3AAAA",
"<.	c #DF1D1D",
"[.	c #F5BFBF",
"}.	c #FDF4F4",
"|.	c #E96868",
"1.	c #FADDDD",
"2.	c #F2A4A4",
"3.	c #DB0101",
"4.	c #DC0707",
"5.	c #DB0202",
"6.	c #FEFBFB",
"7.	c #FEF7F7",
"8.	c #E75454",
"9.	c #E96464",
"0.	c #DE1010",
"a.	c #FDF3F3",
"b.	c #F8CDCD",
"c.	c #FEFFFF",
"d.	c #F8D5D5",
"e.	c #F3ADAD",
"f.	c #EC7777",
"g.	c #DD1111",
"h.	c #FDFBFB",
"i.	c #F6C1C1",
"j.	c #FAE5E5",
"k.	c #E33939",
"l.	c #E02222",
"m.	c #F9D8D8",
"n.	c #E02323",
"o.	c #F4B2B2",
"p.	c #FDF8F8",
"q.	c #E43F3F",
"r.	c #F6C9C9",
"s.	c #E85E5E",
"t.	c #F3ACAC",
"u.	c #E23333",
"v.	c #F7CCCC",
"w.	c #EB7676",
"x.	c #ED8282",
"y.	c #EA7070",
"z.	c #F9DBDB",
"A.	c #E12727",
"B.	c #E65353",
"C.	c #EB7474",
"D.	c #E75353",
"E.	c #E12828",
". . . . . . . . . . . . . . . . . . . . . . . . . . . . . . . . . . . . . . . . . . . . . . . . . . . . . . . . . . . . . . . . . . . . . . . ",
". . . . . . . . . . . . . . . . . . . . . . . . . . . . . . . . . . . . . . . . . . . . . . . . . . . . . . . . . . . . . . . . . . . . . . . ",
". . . . . . . . . . . . . . . . . . . . . . . . . . . . . . . . . . . . . . . . . . . . . . . . . . . . . . . . . . . . . . . . . . . . . . . ",
". . . . . . . . . . . . . . . . . . . . . . . . . . . . . . . . . . . . . . . . . . . . . . . . . . . . . . . . . . . . . . . . . . . . . . . ",
". . . . . . . . . + + @ @ @ + . . . + @ + + + + + + + + + + . . . . + + + + . . . . . + + + + + + + + + . . + + + + + + + + + + + + . . . . . ",
". . . . . . . + # $ % & * = - ; + + > , ' ' ' ' ' ' ' ' % $ + . . # ' ' ' ) . . . . + ! % ' ' ' ' ' ' ~ { ] ^ / ' ' ' ' ' ' ' ' % ( + . . . . ",
". . . . . . . _ : < [ [ [ [ [ } | @ 1 [ [ [ [ [ [ [ [ [ [ 2 + . . 3 [ [ [ 4 + . . . + 5 [ [ [ [ [ [ [ [ [ % 6 7 [ [ [ [ [ [ [ [ [ 8 @ . . . . ",
". . . . . . + 9 [ [ 0 a 4 b < c [ d e f g h i [ [ j g g k l + . + 1 [ [ m n + . . . + o [ [ p h g g 0 q m [ r s g g * t [ q u g k v @ . . . . ",
". . . . . . + w [ x y + + + z [ [ A + + + + B [ [ C + + + + . . + D m E [ [ ! + . . + o [ [ F + + + G H [ [ I @ + + J b [ K @ + + + . . . . . ",
". . . . . . @ L [ 0 M + + + # N O P + . . + Q [ [ C + . . . . + R [ [ / [ [ S @ . . + o [ [ F + . . + T [ [ U + . . V b [ K @ . . . . . . . . ",
". . . . . . + W [ [ u X Y Z @ + + + . . . + Q [ [ C + . . . . @ S [ [ ` b [  .... . + o [ [ B Z @ @ @ +.[ [ J + . . V b [ K @ . . . . . . . . ",
". . . . . . . @.#.[ [ [ [ $.w > %.+ . . . + Q [ [ C + . . . . &.[ [ *.Z =.[ m -.+ + + o [ [ ;.>.v = ,.[ t I + . . . V b [ K @ . . . . . . . . ",
". . . . . . . + '.).#.[ [ [ [ [ 7 !.+ . . + Q [ [ C + . . . . -.m [ ~.+ # $.[ {.+ ].^.e [ m [ [ [ [ [ [ /.] . . . . V b [ K @ . . . . . . . . ",
". . . . . . . + + + Z ..(.W n [ m _.# . . + Q [ [ C + . . . + :.[ t y <.<.[.[ }.+ + + |.[ [ L >.v S 1. .[ 2.+ . . . V b [ K @ . . . . . . . . ",
". . . . . . 3.4.^ 5.+ + + + M t [ i ` . . + Q [ [ C + . . . @ 6.[ 6.#.#.#.7.c [ 8.+ + o [ [ 9.@ + + 0.f [ a.@ . . . V b [ K @ . . . . . . . . ",
". . . . . . @ [ [ b.+ + . + @ 2.[ 0 ` . . + Q [ [ C + . . + Q [ m c.m m m m c.[ d.@ + o [ [ F + . . _ e.[ [ @ . . . V b [ K @ . . . . . . . . ",
". . . . . . @ /.[ < f.g.@ + > h.m i.# . . + Q [ [ C + . . @ j.[ [ k.{ { { l.m.[  .n.+ o [ [ F + . . _ o.m [ + + . . V b [ K @ . . . . . . . . ",
". . . . . . . R p.[ [ [ 8 [ [ [ m q.+ . . + Q [ [ C + . . R  .[ r.@ . . . + s.[ m |.+ o [ [ F + . . . t.m [ r + . . V b [ K @ . . . . . . . . ",
". . . . . . . + u.v.[ [ [ [ [ g ) + . . . + o [ [ w.+ . + x.[ [ ~.+ . . . + ^ [ [ *.+ y.[ [ C + . . + I [ [ z.@ . . ` i [ p.@ . . . . . . . . ",
". . . . . . . . + @ A.B.C.D.E.Z + . . . . . + Z Z @ . . . @ Z Z + . . . . . + Z Z @ . + Z Z + . . . . @ Z Z Z . . . + Z Z Z . . . . . . . . . ",
". . . . . . . . . + + + + + + . . . . . . . . . . . . . . . . . . . . . . . . . . . . . . . . . . . . . . . . . . . . . . . . . . . . . . . . ",
". . . . . . . . . . . . . . . . . . . . . . . . . . . . . . . . . . . . . . . . . . . . . . . . . . . . . . . . . . . . . . . . . . . . . . . ",
". . . . . . . . . . . . . . . . . . . . . . . . . . . . . . . . . . . . . . . . . . . . . . . . . . . . . . . . . . . . . . . . . . . . . . . ",
". . . . . . . . . . . . . . . . . . . . . . . . . . . . . . . . . . . . . . . . . . . . . . . . . . . . . . . . . . . . . . . . . . . . . . . "};
