/* XPM */
static char *start[] = {
/* columns rows colors chars-per-pixel */
"120 48 128 2 ",
"   c #242322",
".  c #252423",
"X  c #272625",
"o  c #282726",
"O  c #292827",
"+  c #2B2A29",
"@  c #2C2B2A",
"#  c #2D2C2B",
"$  c #2D2C2C",
"%  c #302F2E",
"&  c #333231",
"*  c #343332",
"=  c #353433",
"-  c #373635",
";  c #383736",
":  c #393837",
">  c #3B3A39",
",  c #3C3B3A",
"<  c #3D3C3B",
"1  c #3F3E3D",
"2  c #41403F",
"3  c #424140",
"4  c #444342",
"5  c #454443",
"6  c #454544",
"7  c #484746",
"8  c #4B4A49",
"9  c #4C4C4B",
"0  c #4F4E4D",
"q  c #504F4E",
"w  c #515050",
"e  c #545353",
"r  c #555453",
"t  c #595858",
"y  c #5C5B5B",
"u  c #5D5C5B",
"i  c #5F5F5E",
"p  c #626160",
"a  c #636261",
"s  c #666564",
"d  c #676666",
"f  c #686767",
"g  c #696867",
"h  c #6A6A69",
"j  c #6D6C6C",
"k  c #6E6D6D",
"l  c #706F6E",
"z  c #747373",
"x  c #757473",
"c  c #767574",
"v  c #787877",
"b  c #7B7A7A",
"n  c #7C7B7A",
"m  c #7D7C7B",
"M  c #7E7E7D",
"N  c #818080",
"B  c #838382",
"V  c #848383",
"C  c #868585",
"Z  c #888786",
"A  c #888887",
"S  c #8A8989",
"D  c #8E8D8D",
"F  c #919190",
"G  c #949393",
"H  c #979796",
"J  c #989797",
"K  c #989898",
"L  c #999898",
"P  c #9B9B9A",
"I  c #9C9C9B",
"U  c gray61",
"Y  c #A2A2A1",
"T  c #A7A7A7",
"R  c #A9A9A8",
"E  c gray68",
"W  c #B0B0AF",
"Q  c #B1B0B0",
"!  c #B1B1B1",
"~  c #B4B4B3",
"^  c #B4B4B4",
"/  c #B6B6B5",
"(  c #B9B8B8",
")  c #BCBCBB",
"_  c #BEBDBD",
"`  c #C0C0BF",
"'  c #C3C3C2",
"]  c #C4C3C3",
"[  c #C5C4C4",
"{  c gray78",
"}  c #C8C8C7",
"|  c #C8C8C8",
" . c #CBCBCB",
".. c #CCCCCB",
"X. c gray80",
"o. c #CECECE",
"O. c gray81",
"+. c #D0D0CF",
"@. c #D2D2D2",
"#. c LightGray",
"$. c #D4D4D3",
"%. c #D6D6D5",
"&. c #D8D8D8",
"*. c #DADADA",
"=. c gray86",
"-. c gainsboro",
";. c #DDDDDD",
":. c #DFDFDF",
">. c #E0DFDF",
",. c gray88",
"<. c #E2E2E2",
"1. c #E3E3E2",
"2. c #E4E3E3",
"3. c #E4E4E4",
"4. c #E7E7E7",
"5. c #E9E9E8",
"6. c gray92",
"7. c #ECECEC",
"8. c #EFEFEF",
"9. c gray94",
"0. c #F3F3F3",
"q. c #F4F4F4",
"w. c gray97",
"e. c #F8F8F8",
"r. c #F9F9F9",
"t. c #FBFBFB",
"y. c gray99",
"u. c white",
/* pixels */
"                                                                                                                                                                                                                                                ",
"                                                                                                                                                                                                                                                ",
"                                                                                                                                                                                                                                                ",
"                                                                                                                                                                                                                                                ",
"                                                                                                                                                                                                                                                ",
"                                                                                                                                                              .                                                                                 ",
"                                                                                                                                                        r X.[ ' ' ' ^ +                                         u  . . .' -                     ",
"                                                                                                                                                          r @.r.u.u.y. .+                                     : ,.u.u.9.C                       ",
"                                                                                                                                                            X Q 9.u.u.u.[ +                                 X @.u.u.r.R                         ",
"                                                                                                                                                                U 9.u.u.u.' X                               E r.u.u.' X                         ",
"                                                                                                                                                                  P 9.u.u.r.( .                           n 8.u.u.$.#                           ",
"                                                                                                                                                # ~ 4.L             P 9.u.u.e.Y                         7 3.u.u.>.>                             ",
"                                                                                                                        $ F 0                   C u.u.u.t o           Y w.u.u.9.C                     % *.u.u.4.w                               ",
"                                                                                                                      ; @.u.c                   D u.u.u.y               Q w.u.u.5.h                   ' u.u.5.c                                 ",
"                                                                                                                       .u.u.c                   = [ r.R X               X ' r.u.u.4.4               P w.u.w.J                                   ",
"                                                                                                                      *.u.u.c                   .                         + o.u.u.u.*.#           a 5.u.u.(                                     ",
"                                                                                                                      %.u.u.c   .                                           & *.u.u.u.[ .       > ,.u.u.@.+                                     ",
"                                                                                              .                       *.u.u.c   . X                                           8 4.u.u.w.H     O @.u.u.,.>                                       ",
"                                  - n W @.5.4.*.Q m @           5 n m n g >       ; C ..5.w.4._ B @         o y ,.,.4.r.u.u.@.^ Q ^ ^ ~ R   f j k d q +                         h 8.u.u.5.y   Q r.u.5.r                                         ",
"                                C w.w.] ^ R ( 5.u.u.8.i         o k @.u.u.w.k   z w.u.u.u.u.u.u.u.4.0         4 S S S 5.u.u._ P J P P L D . d H 8.u.u.5.*                         Y r.u.u.*.S 8.u.9.M                                           ",
"                              D 8.M $         X P u.u.u.h           X T u.u.9.x u.u. .F x v I 5.u.u.8.&               %.u.u.c                   t u.u.u.y .                       X @.u.u.u.8.u.w.T                                             ",
"                              Q 6                 @.u.u.9.*           < u.u.u.u.:.9         . - :.u.u.P               *.u.u.c                     8.u.u.a .                         < ,.u.u.u.u. .X                                             ",
"                              %                   B u.u.u.b           X u.u.u.9.>               x u.u.3.              %.u.u.c                     4.u.u.a                           . V w.u.u.8.r                                               ",
"                                                  a u.u.u.Y             9.u.u.P                 2 u.u.u.*             *.u.u.c                     4.u.u.a                             ) u.u.u.u.@.X                                             ",
"                                              .   9 u.u.u.^ .           9.u.u.u                 + u.u.u.0             &.u.u.c                     4.u.u.a                           C w.u.u.u.u.w.S                                             ",
"                                  X u D W ' o.@.@.*.u.u.u.( .           9.u.u.2                   w.u.u.y             &.u.u.c                     4.u.u.a                         8 4.u.r.%.w.u.u.4.;                                           ",
"                                z 5.u.u.u.u.u.u.u.u.u.u.u.)             9.u.u.*                   8.u.u.y             &.u.u.c                     4.u.u.a                       + *.u.u.o.X @.u.u.u._                                           ",
"                              P u.u.u.u.w.,.+.[ [ &.u.u.u.)             9.u.u.&                   8.u.u.y             *.u.u.c                     4.u.u.a                       E u.u.,.>   w 5.u.u.8.y                                         ",
"                            a u.u.u.( 0 . .       k u.u.u.)             9.u.u.&                   8.u.u.u             *.u.u.c                     4.u.u.a                     d 5.u.8.d     . Q u.u.u.@.o                                       ",
"                            ' u.u.^ .             z u.u.u.)             9.u.u.&                   8.u.u.y             %.u.u.c                     4.u.u.a                   & :.u.w.U       . & :.u.u.w.V                                       ",
"                          . r.u.u.r               z u.u.u.)             9.u.u.&                   8.u.u.y             *.u.u.c                     4.u.u.a                 . ' u.u. .X           D r.u.u.>.*                                     ",
"                          * u.u.u.:               v u.u.u.)         . . 9.u.u.&                   5.u.u.y             @.u.u.b                     4.u.u.a                 C w.u.:.=             X *.u.u.u.W                                     ",
"                          $ u.u.u.6               F u.u.u.)             9.u.u.&                   8.u.u.u           . o.u.u.B                     4.u.u.a               8 4.u.5.t                 z 9.u.u.5.0                                   ",
"                            8.u.u.a               o.u.u.u.)             9.u.u.&                   8.u.u.u           . ^ u.u.H                     4.u.u.a             + *.u.r.H                   . @.u.u.u.@.X                                 ",
"                            T u.u._ O .         k u.u.u.u.)             9.u.u.&                   8.u.u.y             D u.u.[                     4.u.u.a             ^ u.u. .                      r 8.u.u.r.Y                                 ",
"                            < 8.u.u.[ 3     X c r.5.,.u.u.)             9.u.u.&                   8.u.u.y             5 r.u.u.e       > 2         4.u.u.a           M 9.u.,.-                       . _ u.u.u.5.a                               ",
"                              y 8.u.u.u.%. .4.u.o.> [ u.u.)             9.u.u.&                   5.u.u.y               D u.u.w._ ( ,.u.Z         4.u.u.a         9 4.u.8.h                           : ,.u.u.u.4.T a >                         ",
"                                - H *.r.u.9.' z X     .                 G P P +                   D P L 2               . y E $.,.=.^ l o       . S H P 6       & :.u.u.E                               z :.8.w.w.w.r.~                         ",
"                                        +                                                                                                                     X  .u.u.%.X                                 + 5 q q q q >                         ",
"                                                                                                                                                              T e.u.4.6                                               .                         ",
"                                                                                                                                                            B 8.u.9.C                                                                           ",
"                                                                                                                                                          C 5.u.u.'                                                                             ",
"                                                                                                                                                      - ' 8.u.u.:.*                                                                             ",
"                                                                                                                                                    4 _ @. .} ..p                                                                               ",
"                                                                                                                                                                X                                                                               ",
"                                                                                                                                                                                                                                                ",
"                                                                                                                                                                                                                                                ",
"                                                                                                                                                                                                                                                "
};
