/* XPM */
static char * start_menu_lg_xpm[] = {
"80 32 398 2",
"  	c None",
". 	c #EEF2F7",
"+ 	c #EFF1F8",
"@ 	c #EFF2F8",
"# 	c #DDE0E6",
"$ 	c #8F9195",
"% 	c #9D9FA3",
"& 	c #D9DCE2",
"* 	c #AEB1B5",
"= 	c #AAACB0",
"- 	c #CBCED3",
"; 	c #B0B2B7",
"> 	c #85878A",
", 	c #343536",
"' 	c #E9ECF2",
") 	c #B6B8BD",
"! 	c #68696C",
"~ 	c #050505",
"{ 	c #000000",
"] 	c #0C0C0D",
"^ 	c #9D9EA2",
"/ 	c #B8BABF",
"( 	c #09090A",
"_ 	c #BBBDC2",
": 	c #D8DAE0",
"< 	c #1A1B1B",
"[ 	c #343435",
"} 	c #242425",
"| 	c #202021",
"1 	c #C1C3C8",
"2 	c #111112",
"3 	c #040404",
"4 	c #DADDE3",
"5 	c #191A1A",
"6 	c #87898C",
"7 	c #4E4F51",
"8 	c #747679",
"9 	c #313133",
"0 	c #B5B7BC",
"a 	c #030303",
"b 	c #171818",
"c 	c #DCDFE5",
"d 	c #ECEFF5",
"e 	c #3F4041",
"f 	c #4F5052",
"g 	c #EEF1F7",
"h 	c #3F4042",
"i 	c #333435",
"j 	c #C9CBD0",
"k 	c #E5E8ED",
"l 	c #757679",
"m 	c #515254",
"n 	c #737477",
"o 	c #232425",
"p 	c #E1E4E9",
"q 	c #EDF0F7",
"r 	c #EDF0F6",
"s 	c #ECEFF6",
"t 	c #EAEDF3",
"u 	c #BFC2C7",
"v 	c #A2A4A8",
"w 	c #97989C",
"x 	c #AAACB1",
"y 	c #CDD0D5",
"z 	c #CED1D6",
"A 	c #CCCED3",
"B 	c #9FA1A5",
"C 	c #A0A2A6",
"D 	c #EAEDF4",
"E 	c #D7D9DF",
"F 	c #373839",
"G 	c #2C2C2D",
"H 	c #CDCFD5",
"I 	c #E8EBF1",
"J 	c #D0D3D8",
"K 	c #D3D6DB",
"L 	c #313233",
"M 	c #A7A9AE",
"N 	c #EAEEF6",
"O 	c #EBEEF6",
"P 	c #9A9CA1",
"Q 	c #121313",
"R 	c #2C2D2E",
"S 	c #2F3031",
"T 	c #060707",
"U 	c #414144",
"V 	c #DADDE5",
"W 	c #A7A9AF",
"X 	c #67696C",
"Y 	c #111111",
"Z 	c #3D3E40",
"` 	c #C1C3CA",
" .	c #3F3F42",
"..	c #101010",
"+.	c #1F1F20",
"@.	c #B6B8BE",
"#.	c #48494B",
"$.	c #C9CBD2",
"%.	c #86878C",
"&.	c #555659",
"*.	c #020202",
"=.	c #77787C",
"-.	c #C5C8CE",
";.	c #070708",
">.	c #D7D9E1",
",.	c #CFD2D9",
"'.	c #121212",
").	c #929398",
"!.	c #E7EAF5",
"~.	c #E8EBF5",
"{.	c #E9ECF6",
"].	c #DCDFE9",
"^.	c #262728",
"/.	c #CCCED7",
"(.	c #E7EAF4",
"_.	c #CFD1DA",
":.	c #212122",
"<.	c #454649",
"[.	c #E8EBF4",
"}.	c #8B8C92",
"|.	c #797B80",
"1.	c #E0E3EC",
"2.	c #B7B9C1",
"3.	c #0F0F0F",
"4.	c #D2D5DE",
"5.	c #3E3E41",
"6.	c #323235",
"7.	c #494A4E",
"8.	c #E3E6F0",
"9.	c #7C7E83",
"0.	c #4B4C4F",
"a.	c #2F3032",
"b.	c #58595D",
"c.	c #E4E7F4",
"d.	c #E4E8F4",
"e.	c #E5E8F4",
"f.	c #BEC2CC",
"g.	c #A3A5AD",
"h.	c #E4E7F3",
"i.	c #94969E",
"j.	c #BEC2CB",
"k.	c #BEC0CA",
"l.	c #74767C",
"m.	c #BBBEC7",
"n.	c #010101",
"o.	c #75777D",
"p.	c #3D3E41",
"q.	c #313234",
"r.	c #E4E8F3",
"s.	c #7D7F85",
"t.	c #D1D4DF",
"u.	c #E1E4F0",
"v.	c #353538",
"w.	c #262628",
"x.	c #DCDFEA",
"y.	c #E1E5F2",
"z.	c #E0E5F2",
"A.	c #DADFEB",
"B.	c #C2C6D2",
"C.	c #DDE2EF",
"D.	c #C7CCD7",
"E.	c #82858C",
"F.	c #83868D",
"G.	c #252628",
"H.	c #3E4043",
"I.	c #3C3D41",
"J.	c #303134",
"K.	c #898C94",
"L.	c #C3C7D3",
"M.	c #C1C6D1",
"N.	c #0A0A0A",
"O.	c #0E0E0F",
"P.	c #DEE2F1",
"Q.	c #DEE3F2",
"R.	c #DADFED",
"S.	c #686A71",
"T.	c #C6CBD8",
"U.	c #82858D",
"V.	c #3F4044",
"W.	c #2C2D30",
"X.	c #3B3D41",
"Y.	c #888B94",
"Z.	c #C0C5D2",
"`.	c #ADB1BD",
" +	c #050506",
".+	c #3D3E42",
"++	c #DDE2F1",
"@+	c #DAE0F1",
"#+	c #DBE1F0",
"$+	c #C5CAD8",
"%+	c #9BA0AA",
"&+	c #898C96",
"*+	c #797C85",
"=+	c #696C73",
"-+	c #595C62",
";+	c #C4C9D7",
">+	c #80838C",
",+	c #414348",
"'+	c #28292C",
")+	c #3A3C40",
"!+	c #2F3134",
"~+	c #868A93",
"{+	c #BEC3D0",
"]+	c #CCD1DF",
"^+	c #1B1C1E",
"/+	c #72757D",
"(+	c #45474B",
"_+	c #81848D",
":+	c #DCE0F0",
"<+	c #D7DEF0",
"[+	c #D7DDF0",
"}+	c #D8DEEF",
"|+	c #A5AAB7",
"1+	c #313236",
"2+	c #424449",
"3+	c #56585F",
"4+	c #070707",
"5+	c #575A61",
"6+	c #C1C6D6",
"7+	c #7E828C",
"8+	c #404247",
"9+	c #3A3B40",
"0+	c #2F3034",
"a+	c #848892",
"b+	c #BBC0CF",
"c+	c #D6DCED",
"d+	c #3C3E43",
"e+	c #C2C7D7",
"f+	c #0E0F10",
"g+	c #090A0A",
"h+	c #B9BECC",
"i+	c #D8DFEF",
"j+	c #D4DCEF",
"k+	c #D4DBEE",
"l+	c #D4DCEE",
"m+	c #9CA2AF",
"n+	c #040405",
"o+	c #37393E",
"p+	c #B0B7C6",
"q+	c #111113",
"r+	c #565960",
"s+	c #BEC5D5",
"t+	c #7C818B",
"u+	c #3F4247",
"v+	c #27292C",
"w+	c #393B3F",
"x+	c #2E2F33",
"y+	c #828792",
"z+	c #B8BFCE",
"A+	c #686C75",
"B+	c #1A1B1D",
"C+	c #C4CCDC",
"D+	c #858A95",
"E+	c #303236",
"F+	c #D2D9EB",
"G+	c #D1D9EE",
"H+	c #34363C",
"I+	c #0F0F11",
"J+	c #C7CFE3",
"K+	c #101113",
"L+	c #545860",
"M+	c #BBC2D5",
"N+	c #7A7F8B",
"O+	c #3E4147",
"P+	c #27282C",
"Q+	c #383A3F",
"R+	c #2D2F33",
"S+	c #808592",
"T+	c #B5BCCE",
"U+	c #999FAF",
"V+	c #A8AEBF",
"W+	c #42444B",
"X+	c #727682",
"Y+	c #CED6ED",
"Z+	c #CDD6EC",
"`+	c #CED6EC",
" @	c #1A1B1E",
".@	c #292B2F",
"+@	c #53565F",
"@@	c #B8BFD3",
"#@	c #787D8A",
"$@	c #3D4046",
"%@	c #26272B",
"&@	c #383A40",
"*@	c #2C2D32",
"=@	c #7E8390",
"-@	c #B3B9CD",
";@	c #B6BDD0",
">@	c #0F1012",
",@	c #808593",
"'@	c #0D0D0F",
")@	c #AAB1C3",
"!@	c #CAD4EC",
"~@	c #CAD3EB",
"{@	c #CBD3EB",
"]@	c #32343A",
"^@	c #C1C8DF",
"/@	c #B4BBD0",
"(@	c #52555F",
"_@	c #B6BDD2",
":@	c #777B89",
"<@	c #3C3F46",
"[@	c #25272B",
"}@	c #4C4F58",
"|@	c #191A1D",
"1@	c #7C8190",
"2@	c #B0B7CC",
"3@	c #C5CDE5",
"4@	c #2B2D32",
"5@	c #50545D",
"6@	c #7F8493",
"7@	c #212226",
"8@	c #BDC5DB",
"9@	c #CAD4EA",
"0@	c #C7D1EA",
"a@	c #C7D1E9",
"b@	c #838A9A",
"c@	c #3D4047",
"d@	c #B5BED4",
"e@	c #A8B0C4",
"f@	c #24262A",
"g@	c #0C0C0E",
"h@	c #50545E",
"i@	c #B2BBD0",
"j@	c #747A88",
"k@	c #3B3E45",
"l@	c #8B92A3",
"m@	c #A6AFC3",
"n@	c #7A808F",
"o@	c #ACB5CA",
"p@	c #535761",
"q@	c #292B30",
"r@	c #C1CAE2",
"s@	c #282A2F",
"t@	c #C4CFE9",
"u@	c #6F7684",
"v@	c #08090A",
"w@	c #16181A",
"x@	c #8890A2",
"y@	c #939BAF",
"z@	c #030304",
"A@	c #4F545E",
"B@	c #AFB9D0",
"C@	c #737988",
"D@	c #3A3E45",
"E@	c #24262B",
"F@	c #BFCAE4",
"G@	c #464A53",
"H@	c #020203",
"I@	c #202125",
"J@	c #4B4F59",
"K@	c #C0CBE4",
"L@	c #787F8F",
"M@	c #AAB3CA",
"N@	c #7F8697",
"O@	c #ACB6CD",
"P@	c #C2CDE7",
"Q@	c #686E7B",
"R@	c #131417",
"S@	c #40434C",
"T@	c #B5C0D8",
"U@	c #C4CFE8",
"V@	c #C1CCE7",
"W@	c #C1CDE7",
"X@	c #C1CDE8",
"Y@	c #C1CCE8",
"Z@	c #B9C4DF",
"`@	c #939BB0",
" #	c #868EA1",
".#	c #9AA3BA",
"+#	c #BFCAE6",
"@#	c #B6C1DB",
"##	c #B4BED9",
"$#	c #BCC6E2",
"%#	c #B8C3DD",
"&#	c #A7B0C8",
"*#	c #8E96AB",
"=#	c #B3BFD8",
"-#	c #B7C2DC",
";#	c #B9C3DE",
">#	c #B5BFD9",
",#	c #BEC9E6",
"'#	c #BECAE6",
")#	c #BECAE7",
"!#	c #BEC9E7",
"~#	c #BAC7E6",
"{#	c #BBC7E5",
"]#	c #BBC6E5",
"^#	c #BAC6E5",
"/#	c #BAC6E6",
"(#	c #B7C4E5",
"_#	c #B7C4E4",
":#	c #B4C1E4",
"<#	c #B4C1E3",
"[#	c #B1BFE2",
"}#	c #B1BEE2",
"|#	c #AEBCE2",
"1#	c #AFBDE1",
". + + + + + + + + + + + + + + + + + + + + + + + + + + + + + + + + + + + + + + + + + + + + + + + + + + + + + + + + + + + + + + + + + + + + + + + + + + + + + + . ",
"+ @ @ @ @ @ @ @ @ @ @ @ @ @ @ @ @ @ @ @ @ @ @ @ @ @ @ @ @ @ @ @ @ @ @ @ @ @ @ @ @ @ @ @ @ @ @ @ @ @ @ @ @ @ @ @ @ @ @ @ @ @ @ @ @ @ @ @ @ @ @ @ @ @ @ @ @ @ @ + ",
"+ @ @ @ @ @ @ @ @ @ @ @ @ @ @ @ @ @ @ @ @ @ @ @ @ @ @ @ @ @ @ @ @ @ @ @ @ @ @ @ @ @ @ @ @ @ @ @ @ @ @ @ @ @ @ @ @ @ @ @ @ @ @ @ @ @ @ @ @ @ @ @ @ @ @ @ @ @ @ + ",
"+ @ @ @ @ @ @ @ @ @ @ @ @ @ @ @ @ @ @ @ @ @ @ @ @ @ @ @ @ @ @ @ @ @ @ @ @ @ @ @ @ @ @ @ @ @ @ @ @ @ @ @ @ @ @ @ @ @ @ @ @ @ @ @ @ @ @ @ @ @ @ @ @ @ @ @ @ @ @ + ",
"+ @ @ @ @ @ @ @ @ @ @ @ @ @ @ @ @ @ @ @ @ @ @ @ @ @ @ @ @ @ @ @ @ @ @ @ @ @ @ @ @ @ @ @ @ @ @ @ @ @ @ @ @ @ @ @ @ @ @ @ @ @ @ @ @ @ @ @ @ @ @ @ @ @ @ @ @ @ @ + ",
"+ @ @ @ @ @ @ @ @ @ @ @ @ @ @ @ @ @ @ @ @ @ @ @ @ @ @ @ @ @ @ @ @ @ @ @ @ @ @ @ @ @ @ @ @ @ @ @ @ @ @ @ @ @ @ @ @ @ @ @ @ @ @ @ @ @ @ @ @ @ @ @ @ @ @ @ @ @ @ + ",
"+ @ @ @ @ @ @ @ @ @ @ @ @ @ @ @ @ @ @ @ @ @ @ @ @ @ @ @ @ @ @ @ @ @ @ @ @ @ @ @ @ @ @ @ @ @ @ @ @ @ @ @ # $ $ $ % & @ @ @ @ @ @ @ @ @ @ * = @ @ @ @ @ @ @ @ @ + ",
"+ @ @ @ @ @ @ @ @ @ @ @ @ @ @ @ @ @ @ @ @ @ @ @ @ @ @ @ @ @ @ @ @ @ @ @ @ @ @ @ - ; @ @ @ @ @ @ > , * @ ' ) ! ~ { ] ^ @ @ @ @ @ @ @ @ / ( _ @ @ @ @ @ @ @ @ @ + ",
"+ @ @ @ @ @ @ @ @ @ @ @ @ @ @ @ @ @ @ @ @ @ @ @ @ @ @ @ @ @ @ @ @ @ @ @ @ @ @ : < [ @ @ @ @ @ @ } { | @ @ @ @ 1 2 { 3 ; @ @ @ @ @ @ 4 5 6 @ @ @ @ @ @ @ @ @ @ + ",
"+ @ @ @ @ @ @ @ @ @ @ @ @ @ @ @ @ @ @ @ @ @ @ @ @ @ @ @ @ @ @ @ @ @ @ @ @ @ @ 7 { [ @ @ @ @ @ @ 8 { 9 @ @ @ @ @ 0 a { b c @ @ @ @ d e f @ @ @ @ @ @ @ @ @ @ @ + ",
"g g g g g g g g g g g g g g g g g g g g g g g g g g g g g g g g g g g g g g g h { i g g g g g g g j k g g g g g g l { { m g g g g n o p g g g g g g g g g g g g ",
"q r r r r r r r s r r t u v w x y r r r s & y z p r r r A B C u D r r r r E y F { G y y H I J y K t r r r r r r s ' L { { B r r M ( u r s r r r r r r r r r r q ",
"N O O O O O O O s O P Q 3 R S T { U V O s W X Y { Z `  .T ..{ { +.@.O O O #.{ { { { { { { $.%.&.*.3 =.O O O O O s O -.;.{ Q >.,.'.).O O s O O O O O O O O O O N ",
"!.!.!.!.!.!.!.~.{.].;.^./.(.(._.:.{ <.[.{.~.(.}.{ { a |.1.(.2.o { 3.4.(.(.(.(.5.{ 6.(.[.{.~.(.(.7.{ ;.8.(.(.(.[.{.~.(.9.{ { 0.a.b.(.(.[.{.~.(.(.(.(.(.(.(.(.(.!.",
"c.c.c.c.c.c.c.d.e.f.{ g.h.h.h.h.i.{ { j.e.d.h.k.{ { l.h.h.h.h.m.n.{ o.h.h.h.h.p.{ q.h.r.e.d.h.h.s.{ { t.h.h.h.r.e.d.h.u.v.{ { w.x.h.h.r.e.d.h.h.h.h.h.h.h.h.h.c.",
"y.y.y.y.y.y.y.y.z.A.B.C.z.z.z.z.D.{ { E.z.z.z.D.{ { F.z.z.z.z.z.G.{ H.z.z.z.z.I.{ J.z.z.z.z.z.z.K.{ { L.z.z.z.z.z.z.z.z.M.N.{ O.D.z.z.z.z.z.z.z.z.z.z.z.z.z.z.z.",
"P.Q.Q.Q.Q.Q.Q.Q.Q.Q.Q.Q.Q.Q.Q.Q.R.*.{ S.Q.Q.Q.T.{ { U.Q.Q.Q.Q.Q.V.{ W.Q.Q.Q.Q.X.{ J.Q.Q.Q.Q.Q.Q.Y.{ { Z.Q.Q.Q.Q.Q.Q.Q.Q.`. +{ { .+++Q.Q.Q.Q.Q.Q.Q.Q.Q.Q.Q.Q.Q.P.",
"@+@+@+@+@+@+@+@+#+#+#+#+$+%+&+*+=+ +{ -+#+#+#+;+{ { >+#+#+#+#+#+,+{ '+#+#+#+#+)+{ !+#+#+#+#+#+#+~+{ { {+#+#+#+#+#+#+#+]+^+/+(+{ { _+#+#+#+#+#+#+#+#+#+#+#+#+#+:+",
"<+[+[+[+[+[+[+<+}+}+|+1+{ { '+2+3+4+{ 5+}+}+}+6+{ { 7+}+}+}+}+}+8+{ '+}+}+}+}+9+{ 0+}+}+}+}+}+}+a+{ { b+}+}+}+}+}+}+c+d+8+c+e+f+{ g+h+}+}+}+}+}+}+}+}+}+}+}+}+i+",
"j+k+k+k+k+k+k+k+l+m+n+{ o+p+l+l+l+q+{ r+l+l+l+s+{ { t+l+l+l+l+l+u+{ v+l+l+l+l+w+{ x+l+l+l+l+l+l+y+{ { z+l+l+l+l+l+l+A+B+C+l+l+D+{ { E+F+l+l+l+l+l+l+l+l+l+l+l+j+",
"G+G+G+G+G+G+G+G+G+H+{ I+J+G+G+G+G+K+{ L+G+G+G+M+{ { N+G+G+G+G+G+O+{ P+G+G+G+G+Q+{ R+G+G+G+G+G+G+S+{ { T+G+G+G+G+G+U+( V+G+G+G+G+W+{ { X+G+G+G+G+G+G+G+G+G+G+G+G+",
"Y+Z+Z+Z+Z+Z+Z+Z+`+ @{ .@`+`+`+`+`+K+{ +@`+`+`+@@{ { #@`+`+`+`+`+$@{ %@`+`+`+`+&@{ *@`+`+`+`+`+`+=@{ { -@`+`+`+`+;@>@,@`+`+`+`+`+@@'@{ T )@`+`+`+`+`+`+`+`+`+`+Y+",
"!@~@~@~@~@~@~@~@{@]@{ ( ^@{@{@{@/@;.{ (@{@{@{@_@{ { :@{@{@{@{@{@<@{ [@{@{@{@{@}@{ |@{@{@{@{@{@{@1@{ { 2@{@{@{@3@4@5@{@{@{@{@{@{@{@6@{ { 7@8@{@{@{@{@{@{@{@{@{@9@",
"0@0@0@0@0@0@0@0@a@b@{ { c@d@a@e@f@g@{ h@a@a@a@i@{ { j@a@a@a@a@a@k@{ [@a@a@a@a@j@{ { l@a@a@m@a@a@n@{ { o@a@a@a@p@q@r@a@a@a@a@a@a@a@a@5@{ { s@o@a@a@a@a@a@a@a@a@a@",
"t@t@t@t@t@t@t@t@t@t@u@I+{ { v@w@x@y@z@A@t@t@t@B@{ { C@t@t@t@t@t@D@{ E@t@t@t@t@F@G@{ H@I@|@J@K@t@L@{ { M@t@t@N@I+O@t@t@t@t@t@t@t@t@t@P@Q@R@{ v@S@T@t@t@t@t@t@t@U@",
"V@V@V@V@V@V@V@W@X@Y@Y@Z@`@ #.#+#Y@Y@@#Z@X@Y@Y@+#####$#Y@Y@Y@Y@Y@%###@#Y@Y@Y@Y@Y@Y@&# #*#=#Y@Y@Y@$#####+#Y@Y@-#;#X@Y@Y@Y@Y@Y@Y@Y@Y@Y@Y@Y@X@>#####+#Y@Y@Y@Y@Y@Y@Y@",
",#,#,#,#,#,#'#'#)#!#!#!#!#!#!#!#!#!#!#!#)#!#!#!#!#!#!#!#!#!#!#!#)#!#!#!#!#!#!#!#!#!#!#!#)#!#!#!#!#!#!#!#!#!#!#!#)#!#!#!#!#!#!#!#!#!#!#!#)#!#!#!#!#!#!#!#!#!#!#!#",
"~#{#{#{#{#{#{#{#{#]#]#]#]#]#]#^#^#^#^#^#{#]#]#]#]#]#]#^#^#^#^#^#{#]#]#]#]#]#]#^#^#^#^#^#{#]#]#]#]#]#]#^#^#^#^#^#{#]#]#]#]#]#]#^#^#^#^#^#{#]#]#]#]#]#]#^#^#^#^#/#",
"(#_#_#_#(#(#(#(#_#_#_#(#(#(#(#(#(#(#(#(#_#_#_#(#(#(#(#(#(#(#(#(#_#_#_#(#(#(#(#(#(#(#(#(#_#_#_#(#(#(#(#(#(#(#(#(#_#_#_#(#(#(#(#(#(#(#(#(#_#_#_#(#(#(#(#(#(#(#(#(#",
":#<#<#<#<#<#<#<#<#<#<#<#<#<#<#<#<#<#<#<#<#<#<#<#<#<#<#<#<#<#<#<#<#<#<#<#<#<#<#<#<#<#<#<#<#<#<#<#<#<#<#<#<#<#<#<#<#<#<#<#<#<#<#<#<#<#<#<#<#<#<#<#<#<#<#<#<#<#<#:#",
"[#}#}#}#}#}#}#}#}#}#}#}#}#}#}#}#}#}#}#}#}#}#}#}#}#}#}#}#}#}#}#}#}#}#}#}#}#}#}#}#}#}#}#}#}#}#}#}#}#}#}#}#}#}#}#}#}#}#}#}#}#}#}#}#}#}#}#}#}#}#}#}#}#}#}#}#}#}#}#[#",
"|#1#1#1#1#1#1#1#1#1#1#1#1#1#1#1#1#1#1#1#1#1#1#1#1#1#1#1#1#1#1#1#1#1#1#1#1#1#1#1#1#1#1#1#1#1#1#1#1#1#1#1#1#1#1#1#1#1#1#1#1#1#1#1#1#1#1#1#1#1#1#1#1#1#1#1#1#1#1#|#"};
