/* XPM */
static char * closeI_xpm[] = {
"36 54 12 1",
" 	c None",
".	c #3B3C37",
"+	c #373B36",
"@	c #A33E3A",
"#	c #BE3F3B",
"$	c #BC3A36",
"%	c #FFFFFF",
"&	c #3A3C37",
"*	c #452B32",
"=	c #482731",
"-	c #3D2931",
";	c #C6403B",
"....................................",
"....................................",
"+@################################@+",
"+@################################@+",
"+@#############$##################@+",
"+@##########$#####################@+",
"+@############%%#####%%###########@+",
"+@############%%%###%%%###########@+",
"+@############$%%%#%%%############@+",
"+@##############%%%%%#############@+",
"+@###############%%%##############@+",
"+@##############%%%%%#############@+",
"+@#############%%%#%%%############@+",
"+@############%%%###%%%###########@+",
"+@############%%#####%%###########@+",
"+@################################@+",
"+@################################@+",
"+@################################@+",
"+@################################@+",
"+@################################@+",
"+@################################@+",
"....................................",
"....................................",
"....................................",
"....................................",
"....................................",
"....................................",
"....................................",
"....................................",
"&*================================*&",
"&-;###############################@+",
"&-;###############################@+",
"&-;###############################@+",
"&-;###############################@+",
"&-;############%#####%############@+",
"&-;###########%%%###%%%###########@+",
"&-;############%%%#%%%############@+",
"&-;#############%%%%%#############@+",
"&-;##############%%%##############@+",
"&-;#############%%%%%#############@+",
"&-;############%%%#%%%############@+",
"&-;###########%%%#$#%%%###########@+",
"&-;############%#####%############@+",
"&-;####################$##########@+",
"&-;###############################@+",
"&-;###############################@+",
"&-;###############################@+",
"&-;###############################@+",
"....................................",
"....................................",
"....................................",
"....................................",
"....................................",
"...................................."};
