/* XPM */
static char * restoreI_xpm[] = {
"24 54 179 2",
"  	c None",
". 	c #3B3C37",
"+ 	c #3C3C38",
"@ 	c #32332E",
"# 	c #2C2D28",
"$ 	c #2D2E29",
"% 	c #31322C",
"& 	c #2F302B",
"* 	c #999A97",
"= 	c #D9D9D8",
"- 	c #D1D1D0",
"; 	c #D7D7D6",
"> 	c #A8A8A6",
", 	c #30312B",
"' 	c #2A2C26",
") 	c #C3C3C2",
"! 	c #FFFFFF",
"~ 	c #CDCDCC",
"{ 	c #3B3C38",
"] 	c #2C2D27",
"^ 	c #272923",
"/ 	c #535450",
"( 	c #6E6E6B",
"_ 	c #6A6B67",
": 	c #696A66",
"< 	c #70716E",
"[ 	c #747471",
"} 	c #ACACAA",
"| 	c #D3D3D2",
"1 	c #9B9C99",
"2 	c #BCBCBA",
"3 	c #B8B8B7",
"4 	c #B2B2B0",
"5 	c #AEAEAC",
"6 	c #AEAFAD",
"7 	c #B6B6B4",
"8 	c #7A7A77",
"9 	c #1F201A",
"0 	c #7B7C78",
"a 	c #D8D8D8",
"b 	c #2C2E28",
"c 	c #B1B1AF",
"d 	c #22231E",
"e 	c #81827F",
"f 	c #D8D8D7",
"g 	c #DADAD9",
"h 	c #B7B8B6",
"i 	c #8F908D",
"j 	c #939491",
"k 	c #8C8D8A",
"l 	c #D2D2D1",
"m 	c #B4B4B2",
"n 	c #1E1F19",
"o 	c #777875",
"p 	c #E1E1E1",
"q 	c #262721",
"r 	c #2E2F2A",
"s 	c #21221C",
"t 	c #9D9D9B",
"u 	c #B4B5B3",
"v 	c #51514D",
"w 	c #D9D9D9",
"x 	c #E0E1E0",
"y 	c #767774",
"z 	c #33342E",
"A 	c #A3A4A1",
"B 	c #B3B3B1",
"C 	c #5A5A56",
"D 	c #878885",
"E 	c #33342F",
"F 	c #6F706C",
"G 	c #282924",
"H 	c #30312C",
"I 	c #23241E",
"J 	c #9E9E9C",
"K 	c #BBBBB9",
"L 	c #272823",
"M 	c #2B2C27",
"N 	c #30322C",
"O 	c #2D2E28",
"P 	c #E2E2E2",
"Q 	c #868683",
"R 	c #8B8B88",
"S 	c #828380",
"T 	c #BABAB8",
"U 	c #31322D",
"V 	c #A1A19F",
"W 	c #CFCFCE",
"X 	c #D0D0CF",
"Y 	c #878784",
"Z 	c #3C3D38",
"` 	c #3A3B36",
" .	c #3D3E39",
"..	c #3E403A",
"+.	c #3E3F3A",
"@.	c #1B1C1A",
"#.	c #000000",
"$.	c #0B0B09",
"%.	c #3F403B",
"&.	c #030302",
"*.	c #767676",
"=.	c #CCCCCC",
"-.	c #C1C1C2",
";.	c #C7C7C7",
">.	c #9D9D9C",
",.	c #44453F",
"'.	c #AEAEAE",
").	c #CECECD",
"!.	c #1B1B19",
"~.	c #030301",
"{.	c #000100",
"].	c #1F1F1F",
"^.	c #424242",
"/.	c #3B3B3B",
"(.	c #525251",
"_.	c #767772",
":.	c #636361",
"<.	c #8D8D8E",
"[.	c #D6D6D5",
"}.	c #797979",
"|.	c #A5A5A5",
"1.	c #A2A2A2",
"2.	c #9B9B9B",
"3.	c #969696",
"4.	c #959595",
"5.	c #A9A9A9",
"6.	c #7F7F7C",
"7.	c #050602",
"8.	c #4D4D4D",
"9.	c #DDDDDC",
"0.	c #CDCDCD",
"a.	c #B3B4B2",
"b.	c #0A0A07",
"c.	c #555555",
"d.	c #DCDCDB",
"e.	c #CBCBCB",
"f.	c #B9BAB8",
"g.	c #969693",
"h.	c #797A78",
"i.	c #BFBFBF",
"j.	c #BBBCB9",
"k.	c #060703",
"l.	c #484848",
"m.	c #DDDEDC",
"n.	c #D2D2D3",
"o.	c #7A7A7A",
"p.	c #AAABAA",
"q.	c #2D2D2C",
"r.	c #C5C5C6",
"s.	c #DBDCDB",
"t.	c #D1D1D2",
"u.	c #363732",
"v.	c #42433E",
"w.	c #0D0D0A",
"x.	c #828283",
"y.	c #A6A6A5",
"z.	c #424240",
"A.	c #C1C2C0",
"B.	c #D4D4D4",
"C.	c #5D5E5C",
"D.	c #0C0C09",
"E.	c #151613",
"F.	c #181815",
"G.	c #7B7A7B",
"H.	c #C1C1BF",
"I.	c #2A2B26",
"J.	c #D6D6D6",
"K.	c #979797",
"L.	c #5A5A5A",
"M.	c #616161",
"N.	c #606061",
"O.	c #585859",
"P.	c #BFBEBF",
"Q.	c #BCBDBB",
"R.	c #0E0E0C",
"S.	c #969795",
"T.	c #D4D4D2",
"U.	c #D4D5D3",
"V.	c #868784",
". . . . . . . . . . . . . . . . . . . . . . . . ",
". . . . . . . . . . . . . . . . . . . . . . . . ",
". . . . . . . . . . . . . . . . . . . . . . . . ",
". . . . . . . . . . . . . . . . . . . . . . . . ",
". . . . . . . . . . . . . . . . . . . . . . . . ",
". . . . . . . . . . . . . . . . . . . . . . . . ",
". . . . . . . . + @ # $ $ $ $ # % . . . . . . . ",
". . . . . . . . & * = - - - - ; > , . . . . . . ",
". . . . . . . . ' ) ! ! ! ! ! ! ~ # . . . . . . ",
". . . . . { & ] ^ / ( _ : < [ } | # . . . . . . ",
". . . . . @ 1 2 3 4 5 6 7 8 9 0 a # . . . . . . ",
". . . . . b = ! ! ! ! ! ! c d e f # . . . . . . ",
". . . . . $ g h i j j k l m n o = # . . . . . . ",
". . . . . $ p ( q r r s t u v = w ] . . . . . . ",
". . . . . $ x y z . . r A B C 2 D E . . . . . . ",
". . . . . $ p F G H H I J K L M N { . . . . . . ",
". . . . . O P m Q R R S l T ] . . . . . . . . . ",
". . . . . U V W W W W X X Y U . . . . . . . . . ",
". . . . . { & ] # # # # M @ Z . . . . . . . . . ",
". . . . . . . . . . . . . . . . . . . . . . . . ",
". . . . . . . . . . . . . . . . . . . . . . . . ",
". . . . . . . . . . . . . . . . . . . . . . . . ",
". . . . . . . . . . . . . . . . . . . . . . . . ",
". . . . . . . . . . . . . . . . . . . . . . . . ",
". . . . . . . . . . . . . . . . . . . . . . . . ",
". . . . . . . . . . . . . . . . . . . . . . . . ",
". . . . . . . . . . . . . . . . . . . . . . . . ",
". . . . . . . . . . . . . . . . . . . . . . . . ",
". . . . . . . . . . . . . . . . . . . . . . . . ",
". . . . . . . . . . . . . . . . . . . . . . . . ",
". . . . . . . . . . . . . . . . . . . . . . . . ",
". . . . . . . . . . . . . . . . . . . . . . . . ",
". . . . . . . `  ...+.+.+.+.+... .` . . . . . . ",
". . . . . . . +.@.#.#.#.#.#.#.#.$.%.. . . . . . ",
". . . . . . . %.&.*.=.-.-.-.-.;.>.% . . . . . . ",
". . . . ` +.%.,.#.'.! ! ! ! ! ! ).] . . . . . . ",
". . . .  .!.~.{.#.].^./.(._.:.<.[.# . . . . . . ",
". . . . +.#.}.|.1.2.3.4.5.6.7.8.9.# . . . . . . ",
". . . . +.#.0.! ! ! ! ! ! a.b.c.d.# . . . . . . ",
". . . . +.#.e.f.i j g.h.i.j.k.l.m.# . . . . . . ",
". . . . +.#.n.F q r z #.o.p.q.r.s.] . . . . . . ",
". . . . +.#.t.0 u.+.v.w.x.y.z.A.D E . . . . . . ",
". . . . +.#.B.C.D.E.F.#.G.H.I.M N { . . . . . . ",
". . . . +.#.J.K.L.M.N.O.P.Q.] . . . . . . . . . ",
". . . .  .R.S.T.T.| | U.l V.U . . . . . . . . . ",
". . . . ` %.H M # # # # M @ Z . . . . . . . . . ",
". . . . . . . . . . . . . . . . . . . . . . . . ",
". . . . . . . . . . . . . . . . . . . . . . . . ",
". . . . . . . . . . . . . . . . . . . . . . . . ",
". . . . . . . . . . . . . . . . . . . . . . . . ",
". . . . . . . . . . . . . . . . . . . . . . . . ",
". . . . . . . . . . . . . . . . . . . . . . . . ",
". . . . . . . . . . . . . . . . . . . . . . . . ",
". . . . . . . . . . . . . . . . . . . . . . . . "};
