/* XPM */
static char *start[] = {
/* columns rows colors chars-per-pixel */
"80 32 116 2 ",
"   c #242322",
".  c #252423",
"X  c #262524",
"o  c #272625",
"O  c #2A2928",
"+  c #2B2A29",
"@  c #2C2B2A",
"#  c #2D2C2B",
"$  c #2E2D2C",
"%  c #323130",
"&  c #343332",
"*  c #353433",
"=  c #363534",
"-  c #383736",
";  c #393837",
":  c #393938",
">  c #3C3B3A",
",  c #3D3C3B",
"<  c #3E3D3C",
"1  c #3F3F3E",
"2  c #424140",
"3  c #454443",
"4  c #474646",
"5  c #494847",
"6  c #4A4948",
"7  c #4C4C4B",
"8  c #4D4C4C",
"9  c #504F4F",
"0  c #515050",
"q  c #575655",
"w  c #585756",
"e  c #585857",
"r  c #595858",
"t  c #5D5C5B",
"y  c #5E5E5D",
"u  c #61605F",
"i  c #626160",
"p  c #646463",
"a  c #6C6B6B",
"s  c #6D6C6C",
"d  c #70706F",
"f  c #717170",
"g  c #747373",
"h  c #747473",
"j  c #777776",
"k  c #787877",
"l  c #797878",
"z  c #7C7C7B",
"x  c #7E7E7D",
"c  c #807F7F",
"v  c #81807F",
"b  c #818080",
"n  c #868686",
"m  c #888787",
"M  c #8A8988",
"N  c #8A8A89",
"B  c #8C8C8B",
"V  c #8F8F8E",
"C  c #90908F",
"Z  c #929191",
"A  c #949493",
"S  c #959594",
"D  c #989797",
"F  c #999898",
"G  c gray60",
"H  c #9B9B9A",
"J  c #9F9E9E",
"K  c #A09F9F",
"L  c #A0A09F",
"P  c #A2A2A1",
"I  c #A3A3A2",
"U  c #A4A4A3",
"Y  c #A7A7A7",
"T  c #A8A8A7",
"R  c #AAAAA9",
"E  c #AFAFAE",
"W  c #B0B0AF",
"Q  c #B3B2B2",
"!  c #B7B7B6",
"~  c #B7B7B7",
"^  c #B9B9B9",
"/  c #BFBEBE",
"(  c gray75",
")  c #C0C0C0",
"_  c #C6C6C6",
"`  c gray78",
"'  c #C9C9C8",
"]  c gray80",
"[  c #D0CFCF",
"{  c #D0D0D0",
"}  c #D2D2D2",
"|  c LightGray",
" . c gray84",
".. c gray85",
"X. c gray86",
"o. c #DCDCDB",
"O. c #DDDCDC",
"+. c #DFDFDE",
"@. c gray88",
"#. c #E3E3E2",
"$. c gray89",
"%. c gray90",
"&. c #E8E7E7",
"*. c #EAE9E9",
"=. c gray93",
"-. c #EFEFEF",
";. c #F0EFEF",
":. c gray94",
">. c #F1F0F0",
",. c #F3F3F3",
"<. c #F4F4F4",
"1. c gray97",
"2. c #F8F8F8",
"3. c #FBFBFB",
"4. c gray99",
"5. c white",
/* pixels */
"                                                                                                                                                                ",
"                                                                                                                                                                ",
"                                                                                                                                                                ",
"                                                                                                              .                                                 ",
"                                                                                                      Q } ' ] b                           d ] ] J               ",
"                                                                                                        c &.5.=.z                       3 #.5.] +               ",
"                                                                                                          t #.5.=.j .                 + ] 5...>                 ",
"                                                                                                2 K w       u %.5.*.i                 Q 5.%.w                   ",
"                                                                                g k             ! 5.O.        a *.5.O.8 . .         M 2.:.j                     ",
"                                                                              j 5.P             h 2.G           l =.5. .$ .       y *.1.Z                       ",
"                                                                            . H 5.U                             X n 1.5.^ .     - ..5.E                         ",
"                                      .                                   . . G 5.P                             X   P 2.2.A   X ( 5._ +                         ",
"                      r W O.:.*._ l X .   & S Y S < . y / *.1.o.G %        .:.2.5.=.} } | ' , V G C 7             . X ) 5.=.i P 5...:                           ",
"                    m / i < = q } 5.^ X   . $ T 5.#.c 5.o.W W #.5...+       X H 5.R & % * %   O E 5. .            . X = O.5.#.:.&.q                             ",
"                    k           5 5.5.x       % 5.5.;.w       # O.5.c         G 5.U             u 5.o..                 s :.5.1.x                               ",
"                                  %.5.^       . 2.5.b           B 5.!         G 5.P             y 5.#.              . . = O.5.2.N                               ",
"                          * 4 8 0 ..5._         :.5.5           d 5.'       X H 5.U             y 5.o.                  / 5.:.5.#.*                             ",
"                    $ S %.5.5.5.5.5.5.}         1.5.* .         i 5.o.    . . G 5.P             t 5.@.                V 2.O.b 1.5.Q                             ",
"                  + } 5.1.! J V N :.5.}         1.5.#           i 5.o..       G 5.P             y 5.@.              9 *.=.i   ( 5.:.u                           ",
"                  c 5.O.-         *.5.}         1.5.# .         i 5...      . G 5.P             y 5.O.            + [ 2.A     4 *.5.] X                         ",
"                  ! 5.Z           =.5.}         :.5.# .         i 5....       G 5.U             t 5.O.X           R 5./         R 5.3.B                         ",
"                  ) 5.b         X 1.5.}         1.5.# .         i 5....       V 5.R             y 5.O.        . g 1. .% .       $ O.5.#.-                       ",
"                  K 5.P         y 5.5.}         1.5.#           i 5.O..       l 5.)             t 5.O.        < o.=.t             N 4.5.~ .                     ",
"                . 4 2.2.l X   8 *.%.5.}         1.5.$           i 5...        4 5.1.:   X ;     y 5.#.      X ` 5.A             X X [ 5.1.n                     ",
"                    p *.5.=.O.;.z a ! D         1.5.#           i 5.... .       N 2.=.] =.Z     y 5.O.      R 5.( X                 u =.5.:.! b                 ",
"                    . @ r s t @                                                   $ 6 e &           X     c 1.o.> .                   i G P P l                 ",
"                                                                                                    .   q %.:.g .                                               ",
"                                                                                                    . 9 o.5.R                                                   ",
"                                                                                                  X J *.5.} +                                                   ",
"                                                                                                  % 9 9 0 =                                                     ",
"                                                                                                                                                                ",
"                                                                                                                                                                "
};
