/* XPM */
static char * start_outline_grey_xpm[] = {
"24 24 118 2",
"  	c None",
". 	c #3B3B38",
"+ 	c #3C3B37",
"@ 	c #3B3C39",
"# 	c #394245",
"$ 	c #335772",
"% 	c #335975",
"& 	c #335874",
"* 	c #355166",
"= 	c #3A3E3F",
"- 	c #3B3B37",
"; 	c #3A3F41",
"> 	c #345267",
", 	c #335873",
"' 	c #325976",
") 	c #2196F3",
"! 	c #2194F0",
"~ 	c #2195F1",
"{ 	c #248DE1",
"] 	c #297ABA",
"^ 	c #354F61",
"/ 	c #354F62",
"( 	c #2978B5",
"_ 	c #238CDF",
": 	c #2193EE",
"< 	c #2F6287",
"[ 	c #355062",
"} 	c #345368",
"| 	c #34536A",
"1 	c #34546A",
"2 	c #2D6C9D",
"3 	c #2683CC",
"4 	c #374955",
"5 	c #374956",
"6 	c #2684CE",
"7 	c #2E6895",
"8 	c #33556E",
"9 	c #345266",
"0 	c #354F60",
"a 	c #306084",
"b 	c #2194EF",
"c 	c #335771",
"d 	c #306187",
"e 	c #2683CB",
"f 	c #2586D2",
"g 	c #2F6892",
"h 	c #33566F",
"i 	c #335670",
"j 	c #315E7F",
"k 	c #3B3D3C",
"l 	c #2489D9",
"m 	c #238DE2",
"n 	c #3B3D3B",
"o 	c #325C7B",
"p 	c #2B73AC",
"q 	c #2B72A9",
"r 	c #2D6A98",
"s 	c #2E6997",
"t 	c #228EE5",
"u 	c #2D6999",
"v 	c #3B3C3A",
"w 	c #2290E7",
"x 	c #355165",
"y 	c #3A3E3E",
"z 	c #287DC0",
"A 	c #2C6EA3",
"B 	c #2B71A7",
"C 	c #277EC3",
"D 	c #354E5F",
"E 	c #2E6894",
"F 	c #2E6998",
"G 	c #306288",
"H 	c #2682CA",
"I 	c #364E5E",
"J 	c #2586D3",
"K 	c #238EE2",
"L 	c #2D6B9A",
"M 	c #2D6B9C",
"N 	c #2D6C9C",
"O 	c #2582CB",
"P 	c #2D6B9B",
"Q 	c #2682CB",
"R 	c #384954",
"S 	c #2489D8",
"T 	c #2B72AA",
"U 	c #364E60",
"V 	c #2682C9",
"W 	c #306185",
"X 	c #364E5F",
"Y 	c #3B3E3D",
"Z 	c #2780C6",
"` 	c #2C70A6",
" .	c #2C70A5",
"..	c #3A3E3D",
"+.	c #2291EA",
"@.	c #325A77",
"#.	c #325A78",
"$.	c #315D7D",
"%.	c #2B73AB",
"&.	c #315C7D",
"*.	c #315D7E",
"=.	c #34546D",
"-.	c #34556E",
";.	c #2292EA",
">.	c #355063",
",.	c #345268",
"'.	c #34546B",
").	c #2683CD",
"!.	c #34556D",
"~.	c #33556C",
"{.	c #315E80",
"].	c #2292EB",
"^.	c #248ADB",
"/.	c #238EE4",
"(.	c #2195F2",
"_.	c #2193ED",
":.	c #355267",
"<.	c #3A3F3F",
". + + + + + + + + + @ + + @ + + + + + + + + + . ",
"+ # $ % & % % & * = + - - + ; > , % & & ' $ # + ",
"+ $ ) ) ) ! ! ~ { ] ^ + + / ( _ ) ! ! ~ ! ) $ + ",
"+ ' : < [ } > | 1 2 3 4 5 6 7 } 8 9 } 0 a b ' + ",
"+ c ) 8 + + + + + + d e f g + + + + + + h ) c + ",
"+ i ) j + k @ @ @ + + l m n + @ @ @ k + j ) i + ",
"+ c ) o + @ + + + + + p q + + + + + @ + o ) c + ",
"+ c ) ' + @ + + + + + r s + + + + + @ + % ) c + ",
"+ * t 8 + @ + + + + + u u + + + + + v + c w x + ",
"+ y z A + + + + + + + s s + + + + + + + B C k + ",
"@ + D e E n + + + + + F F + + + + + + G H I + @ ",
"+ - + 5 J K q L 2 M N O O N M 2 P p l Q R + - + ",
"+ - + 5 Q S p P 2 M N O O N M 2 L T K f 4 + - + ",
"@ + U V W + + + + + + F F + + + + + n 7 Q X + @ ",
"+ Y Z ` + + + + + + + s s + + + + + + +  .C ..+ ",
"+ x +., + v + + + + + u u + + + + + @ + c w x + ",
"+ c ) @.+ @ + + + + + s r + + + + + @ + #.) i + ",
"+ i ) $.+ v + + + + + q %.+ + + + + v + &.) i + ",
"+ c ) *.+ k @ @ @ + n K S + + v @ @ k + *.) c + ",
"+ $ ) =.+ + + + + + 7 J Q d + + + + + + -.) $ + ",
"+ @.;.a >.,.9 '.* F ).R 4 3 2 !.~.9 } ^ {.].@.+ ",
"+ , ) ! ) ! ! ) ^.( ^ + + ^ ] /.) ! ! (._.) , + ",
"+ # , ' & % % , :.<.+ - - + = * , % & & @., # + ",
". + + + + + + + + + @ + + @ + + + + + + + + + . "};
