/* XPM */
static char * start_xpm[] = {
"24 24 8 1",
" 	c None",
".	c #2196F3",
"+	c #2296F3",
"@	c #2196F4",
"#	c #2096F3",
"$	c #2195F3",
"%	c #2195F4",
"&	c #2196F2",
"                        ",
"                        ",
"  ......+.    @.......  ",
"  .      ..  .@      .  ",
"  .        ..        .  ",
"  .        ..        .  ",
"  .        @.        .  ",
"  .        #.        .  ",
"  $        $$        .  ",
"  .%       $$       ..  ",
"   .&      $$       .   ",
"    .......##....@..    ",
"    ..@....##.......    ",
"   .       $$      ..   ",
"  ..       $$       @.  ",
"  .        $$        .  ",
"  .        .#        .  ",
"  .        ..        .  ",
"  .        ..        .  ",
"  .       ...        .  ",
"  .      @.  ..      .  ",
"  ........    ........  ",
"                        ",
"                        "};
