/* XPM */
static char * minimizeA_xpm[] = {
"24 54 62 1",
" 	c None",
".	c #3B3C37",
"+	c #34352F",
"@	c #2F302A",
"#	c #2F302B",
"$	c #32332E",
"%	c #353631",
"&	c #6B6C68",
"*	c #8F8F8C",
"=	c #8A8B88",
"-	c #8D8E8B",
";	c #777874",
">	c #2B2C27",
",	c #BBBCBA",
"'	c #FFFFFF",
")	c #D9DAD9",
"!	c #2C2D27",
"~	c #2C2D28",
"{	c #B3B3B1",
"]	c #CFCFCE",
"^	c #2D2E28",
"/	c #B7B7B5",
"(	c #D4D4D3",
"_	c #30312B",
":	c #979794",
"<	c #D9D9D8",
"[	c #D1D1D0",
"}	c #D6D6D5",
"|	c #ACACAA",
"1	c #30312C",
"2	c #3B3C38",
"3	c #2D2E29",
"4	c #2C2E28",
"5	c #3A3B36",
"6	c #3D3E39",
"7	c #3E3F3A",
"8	c #3C3E38",
"9	c #2A2B27",
"0	c #151613",
"a	c #10110E",
"b	c #11120F",
"c	c #10100D",
"d	c #1B1C19",
"e	c #3F403B",
"f	c #0A0A09",
"g	c #383838",
"h	c #696969",
"i	c #636364",
"j	c #656565",
"k	c #595A59",
"l	c #383933",
"m	c #000100",
"n	c #A4A4A4",
"o	c #DDDDDC",
"p	c #020200",
"q	c #999999",
"r	c #000000",
"s	c #9C9C9C",
"t	c #0F0F0D",
"u	c #838382",
"v	c #DBDCDA",
"w	c #343530",
"........................",
"........................",
"........................",
"........................",
"........................",
"........................",
"........................",
"........................",
"........................",
"........................",
"........................",
"........................",
"........................",
"........................",
"......+@########$.......",
".....%&*=======-;%......",
".....>,''''''''')!......",
".....~{''''''''']^......",
".....!/'''''''''(~......",
"....._:<[[[[[[[}|1......",
".....2$~333333341.......",
"........................",
"........................",
"........................",
"........................",
"........................",
"........................",
"........................",
"........................",
"........................",
"........................",
"........................",
"........................",
"........................",
"........................",
"........................",
"........................",
"........................",
"........................",
"........................",
"....56777777777765......",
"....890abbbbbbbcd6......",
"....efghiiiiiiijkl......",
"....emn'''''''''o>......",
"....epq''''''''']^......",
"....ers'''''''''(~......",
"....7tuv[[[[[[[}|1......",
"....57w~333333341.......",
"........................",
"........................",
"........................",
"........................",
"........................",
"........................"};
