/* XPM */
static char * start_text_blue_xpm[] = {
"71 24 128 2",
"  	c None",
". 	c #0091DC",
"+ 	c #0090DA",
"@ 	c #0393DD",
"# 	c #37A8E3",
"$ 	c #8FCEEF",
"% 	c #BBE1F5",
"& 	c #D2EBF8",
"* 	c #B8DFF4",
"= 	c #6ABEEA",
"- 	c #1B9CDF",
"; 	c #4EB2E6",
"> 	c #91CFEF",
", 	c #8DCDEF",
"' 	c #32A6E2",
") 	c #3BAAE3",
"! 	c #67BDE9",
"~ 	c #2EA4E2",
"{ 	c #0292DC",
"] 	c #0693DC",
"^ 	c #7EC6EC",
"/ 	c #7CC6EC",
"( 	c #0192DD",
"_ 	c #BDE2F5",
": 	c #FCFDFE",
"< 	c #FFFFFF",
"[ 	c #F5FAFD",
"} 	c #50B3E6",
"| 	c #65BCE9",
"1 	c #45AEE5",
"2 	c #9AD3F0",
"3 	c #0593DD",
"4 	c #E7F4FB",
"5 	c #E4F2FA",
"6 	c #60BAE8",
"7 	c #E0F1FA",
"8 	c #AAD9F2",
"9 	c #D4ECF8",
"0 	c #1199DF",
"a 	c #73C2EB",
"b 	c #D7EDF9",
"c 	c #D0EAF8",
"d 	c #E2F2FA",
"e 	c #E5F3FB",
"f 	c #53B4E7",
"g 	c #FEFEFE",
"h 	c #69BDE9",
"i 	c #E3F3FB",
"j 	c #FAFDFE",
"k 	c #24A0E0",
"l 	c #B7E0F5",
"m 	c #F7FBFD",
"n 	c #CEEAF8",
"o 	c #AFDCF3",
"p 	c #ECF6FC",
"q 	c #1A9CE0",
"r 	c #9CD3F0",
"s 	c #6FC1EB",
"t 	c #62BAE8",
"u 	c #6EC0EA",
"v 	c #F8FCFE",
"w 	c #68BCE8",
"x 	c #0D96DD",
"y 	c #87CAED",
"z 	c #81C8ED",
"A 	c #0894DC",
"B 	c #0B95DD",
"C 	c #A8D9F2",
"D 	c #9FD5F1",
"E 	c #5EB9E8",
"F 	c #51B4E7",
"G 	c #0895DE",
"H 	c #1098DE",
"I 	c #0995DD",
"J 	c #159ADF",
"K 	c #8ACCEE",
"L 	c #2FA4E1",
"M 	c #EEF7FC",
"N 	c #0F98DF",
"O 	c #1399DF",
"P 	c #C8E6F6",
"Q 	c #55B5E7",
"R 	c #5CB8E8",
"S 	c #D5EDF9",
"T 	c #B6DFF4",
"U 	c #F0F8FC",
"V 	c #1C9DE0",
"W 	c #8CCCEE",
"X 	c #30A5E2",
"Y 	c #44ADE4",
"Z 	c #A6D8F2",
"` 	c #0C96DE",
" .	c #0E97DE",
"..	c #B9E0F5",
"+.	c #59B6E7",
"@.	c #BFE3F5",
"#.	c #ABDAF3",
"$.	c #1D9DDF",
"%.	c #BFE2F5",
"&.	c #DEF0FA",
"*.	c #A4D7F2",
"=.	c #0191DB",
"-.	c #0794DD",
";.	c #F3F9FD",
">.	c #D6ECF8",
",.	c #ADDBF3",
"'.	c #78C4EC",
").	c #1197DD",
"!.	c #FBFCFD",
"~.	c #C2E4F6",
"{.	c #E6F3FA",
"].	c #39A9E3",
"^.	c #229FE0",
"/.	c #D9EEF9",
"(.	c #B2DDF4",
"_.	c #F9FCFD",
":.	c #40ACE4",
"<.	c #CAE7F6",
"[.	c #34A7E2",
"}.	c #CDE9F7",
"|.	c #77C3EB",
"1.	c #83C9ED",
"2.	c #70C0EA",
"3.	c #DBEFF9",
"4.	c #27A1E1",
"5.	c #54B4E6",
"6.	c #75C3EB",
"7.	c #29A2E1",
". . . . . . . . . . . . . . . . . . . . . . . . . . . . . . . . . . . . . . . . . . . . . . . . . . . . . . . . . . . . . . . . . . . . . . . ",
". . . . . . . . . . . . . . . . . . . . . . . . . . . . . . . . . . . . . . . . . . . . . . . . . . . . . . . . . . . . . . . . . . . . . . . ",
". . . . . . . . . . . . . . . . . . . . . . . . . . . . . . . . . . . . . . . . . . . . . . . . . . . . . . . . . . . . . . . . . . . . . . . ",
". . . . . . . . . . . . . . . . . . . . . . . . . . . . . . . . . . . . . . . . . . . . . . . . . . . . . . . . . . . . . . . . . . . . . . . ",
". . . . . . . . . . . + + + . . . . . + . . . . . . . . . . . . . . . . . . . . . . . . . . . . . . . . . . . . . . . . . . . . . . . . . . . ",
". . . . . . . . @ # $ % & * = - . . ; > , , , , , , , , $ # . . . @ , , , ' . . . . . ) $ , , , , , , ! ~ { ] ^ , , , , , , , , $ / . . . . . ",
". . . . . . . ( _ : < < < < < [ } + > < < < < < < < < < < | . . . 1 < < < 2 . . . . . = < < < < < < < < < $ 3 4 < < < < < < < < < 5 + . . . . ",
". . . . . . . 6 < < 7 8 2 9 : < < 0 a b c c d < < e c c & f . . . > < < g e . . . . . h < < i c c c 7 j g < k l c c & m < j n c & * + . . . . ",
". . . . . . . o < p q . . . r < < s . . . . t < < u . . . . . . . 7 g v < < ) . . . . h < < w . . . x y < < z + . . A 9 < 4 + . . . . . . . . ",
". . . . . . + 9 < 7 B . . . @ C D E . . . . t < < u . . . . . . ~ < < ^ < < _ + . . . h < < w . . . . F < < a . . . G 9 < 4 + . . . . . . . . ",
". . . . . . . C < < n 6 H + + . . . . . . . t < < u . . . . . + _ < < I 9 < g J . . . h < < t + + + + K < < A . . . G 9 < 4 + . . . . . . . . ",
". . . . . . . L M < < < < m o ; N . . . . . t < < u . . . . . O < < P + Q < g R . . . h < < S T * * U < m z . . . . G 9 < 4 + . . . . . . . . ",
". . . . . . . . V W M < < < < < 4 X . . . . t < < u . . . . . R g < Y . @ m < Z . `  .a < g < < < < < < ..{ . . . . G 9 < 4 + . . . . . . . . ",
". . . . . . . . . . + J +.C e < g @.@ . . . t < < u . . . . . #.< m q $.$.%.< [ . . . h < < 9 T * _ &.g < *.. . . . G 9 < 4 + . . . . . . . . ",
". . . . . . =.-.] { . . . . B m < d I . . . t < < u . . . . + : < : M M M v < < Q . . h < < | + . . H b < ;.+ . . . G 9 < 4 + . . . . . . . . ",
". . . . . . + < < n . . . . + *.< 7 I . . . t < < u . . . . t < g < g g g g < < >.+ . h < < w . . . ( ,.< < + . . . G 9 < 4 + . . . . . . . . ",
". . . . . . + ..< : '.).+ . ; !.g ~.@ . . . t < < u . . . + {.< < ].~ ~ ~ ^./.< g k . h < < w . . . ( (.g < . . . . G 9 < 4 + . . . . . . . . ",
". . . . . . . ~ _.< < < 5 < < < g :.. . . . t < < u . . . ~ g < <.+ . . . . E < g h . h < < w . . . . ,.g < k . . . G 9 < 4 + . . . . . . . . ",
". . . . . . . . [.}.< < < < < c ' . . . . . h < < |.. . . 1.< < Y . . . . . ] < < P . 2.< < u . . . . z < < 3.+ . . I d < _.+ . . . . . . . . ",
". . . . . . . . . + 4.5.6.f 7.+ . . . . . . . + + + . . . + + + . . . . . . . + + + . . + + . . . . . + + + + . . . . + + + . . . . . . . . . ",
". . . . . . . . . . . . . . . . . . . . . . . . . . . . . . . . . . . . . . . . . . . . . . . . . . . . . . . . . . . . . . . . . . . . . . . ",
". . . . . . . . . . . . . . . . . . . . . . . . . . . . . . . . . . . . . . . . . . . . . . . . . . . . . . . . . . . . . . . . . . . . . . . ",
". . . . . . . . . . . . . . . . . . . . . . . . . . . . . . . . . . . . . . . . . . . . . . . . . . . . . . . . . . . . . . . . . . . . . . . ",
". . . . . . . . . . . . . . . . . . . . . . . . . . . . . . . . . . . . . . . . . . . . . . . . . . . . . . . . . . . . . . . . . . . . . . . "};
