/* XPM */
static char * start_menu_sm_xpm[] = {
"40 16 198 2",
"  	c None",
". 	c #EFF2F8",
"+ 	c #DADDE3",
"@ 	c #ADB0B4",
"# 	c #E2E5EA",
"$ 	c #BBBEC3",
"% 	c #5A5B5D",
"& 	c #606163",
"* 	c #E1E4E9",
"= 	c #818386",
"- 	c #C0C3C7",
"; 	c #1F1F20",
"> 	c #2F2F31",
", 	c #939599",
"' 	c #E4E7EC",
") 	c #333335",
"! 	c #EAEDF3",
"~ 	c #EEF1F7",
"{ 	c #616264",
"] 	c #D6D8DE",
"^ 	c #EDF0F6",
"/ 	c #CFD2D7",
"( 	c #C6C8CD",
"_ 	c #E7EAF0",
": 	c #E9ECF2",
"< 	c #DEE1E7",
"[ 	c #E8EBF1",
"} 	c #8D8F92",
"| 	c #171818",
"1 	c #E5E8ED",
"2 	c #DFE2E7",
"3 	c #CED1D6",
"4 	c #0B0B0C",
"5 	c #787A7D",
"6 	c #85868A",
"7 	c #AEB0B4",
"8 	c #E9ECF6",
"9 	c #E7EAF3",
"0 	c #3A3A3D",
"a 	c #717377",
"b 	c #78797E",
"c 	c #1D1E1F",
"d 	c #C4C6CE",
"e 	c #DBDEE7",
"f 	c #76777C",
"g 	c #131314",
"h 	c #636468",
"i 	c #737579",
"j 	c #363739",
"k 	c #424345",
"l 	c #E5E8F1",
"m 	c #BEC0C8",
"n 	c #454548",
"o 	c #0C0C0C",
"p 	c #6D6E72",
"q 	c #A2A5AB",
"r 	c #ABADB4",
"s 	c #111212",
"t 	c #989A9F",
"u 	c #E9ECF5",
"v 	c #EAEDF6",
"w 	c #8C8E93",
"x 	c #050606",
"y 	c #87898E",
"z 	c #7A7B80",
"A 	c #E3E7F4",
"B 	c #D9DDE9",
"C 	c #9698A0",
"D 	c #E3E7F3",
"E 	c #54555A",
"F 	c #585A5E",
"G 	c #CFD3DE",
"H 	c #000000",
"I 	c #AFB2BC",
"J 	c #D7DAE6",
"K 	c #060607",
"L 	c #A6A9B2",
"M 	c #8F9299",
"N 	c #18181A",
"O 	c #3E3F43",
"P 	c #65676D",
"Q 	c #E2E6F2",
"R 	c #404145",
"S 	c #0D0E0E",
"T 	c #DBDFEA",
"U 	c #DCE2F2",
"V 	c #DDE2F1",
"W 	c #CDD1DF",
"X 	c #AFB3BF",
"Y 	c #515359",
"Z 	c #35363A",
"` 	c #D2D6E5",
" .	c #1F2022",
"..	c #858892",
"+.	c #8C8F98",
"@.	c #17181A",
"#.	c #44464B",
"$.	c #606269",
"%.	c #D9DEEC",
"&.	c #505257",
"*.	c #101112",
"=.	c #676970",
"-.	c #DDE2F2",
";.	c #D6DDF0",
">.	c #CAD0E0",
",.	c #3E4045",
"'.	c #3A3C41",
").	c #868A95",
"!.	c #4E5056",
"~.	c #2B2C30",
"{.	c #D7DEEF",
"].	c #CCD3E3",
"^.	c #AAB0BD",
"/.	c #202124",
"(.	c #7F838E",
"_.	c #888C97",
":.	c #171819",
"<.	c #43454A",
"[.	c #5E6168",
"}.	c #646870",
"|.	c #ADB2C0",
"1.	c #8A8F9A",
"2.	c #020202",
"3.	c #A4A9B6",
"4.	c #D7DEF0",
"5.	c #CFD8ED",
"6.	c #7D828E",
"7.	c #0B0C0D",
"8.	c #CDD5E9",
"9.	c #D0D8ED",
"0.	c #70747F",
"a.	c #2A2B2F",
"b.	c #C5CDE1",
"c.	c #A5ABBC",
"d.	c #1F2023",
"e.	c #7B808C",
"f.	c #848997",
"g.	c #161719",
"h.	c #404349",
"i.	c #5B5E67",
"j.	c #8B909E",
"k.	c #818693",
"l.	c #1E1F22",
"m.	c #C7CFE3",
"n.	c #D0D8EE",
"o.	c #C9D3EB",
"p.	c #9AA1B3",
"q.	c #020203",
"r.	c #A1A8BB",
"s.	c #C2CBE2",
"t.	c #3B3D44",
"u.	c #282A2F",
"v.	c #CAD3EB",
"w.	c #C0C8DF",
"x.	c #A0A7BA",
"y.	c #1E1F23",
"z.	c #787D8B",
"A.	c #979DAF",
"B.	c #060606",
"C.	c #BBC3D9",
"D.	c #3F4149",
"E.	c #585C66",
"F.	c #ABB3C7",
"G.	c #5A5E69",
"H.	c #B7BFD5",
"I.	c #151618",
"J.	c #42454C",
"K.	c #C4CCE4",
"L.	c #C3CEE8",
"M.	c #C3CEE9",
"N.	c #80889A",
"O.	c #464A54",
"P.	c #606572",
"Q.	c #ABB4CC",
"R.	c #717887",
"S.	c #BEC8E3",
"T.	c #5B606D",
"U.	c #AEB7CF",
"V.	c #6A707F",
"W.	c #99A2B7",
"X.	c #C2CDE8",
"Y.	c #6D7382",
"Z.	c #4F535E",
"`.	c #777D8E",
" +	c #7B8293",
".+	c #8890A3",
"++	c #808799",
"@+	c #BDC8E2",
"#+	c #ABB5CD",
"$+	c #636977",
"%+	c #BFCAE4",
"&+	c #BDC9E6",
"*+	c #BDC9E7",
"=+	c #BDC8E7",
"-+	c #B6C3E4",
";+	c #B6C3E5",
">+	c #B1BFE3",
",+	c #B0BEE2",
". . . . . . . . . . . . . . . . . . . . . . . . . . . . . . . . . . . . . . . . ",
". . . . . . . . . . . . . . . . . . . . . . . . . . . . . . . . . . . . . . . . ",
". . . . . . . . . . . . . . . . . . . . . . . . . . . . . . . . . . . . . . . . ",
". . . . . . . . . . . . . . . . . . . . + . . . @ # $ % & + . . . * = . . . . . ",
". . . . . . . . . . . . . . . . . . . - ; . . . > , . ' ) ) ! . ~ { ] . . . . . ",
"~ ~ ~ ~ ~ ^ / ( _ ~ : < ^ ~ + / ~ ~ [ } | < 1 2 * ^ ~ ~ 3 4 5 ~ 6 7 ~ ~ ~ ~ ~ . ",
"8 8 8 8 9 0 a b c d e f g h i j k l m n o p q r s t u u v w x y z u v u u u u v ",
"A A A A B C D D E F A G H I D J K L D M N D A D O P D D A Q R S T D A D D D D A ",
"U U U U V V W X Y Z V ` H X V V  ...V +.@.V V V #.$.V V V %.&.*.=.V V V V V V -.",
";.;.;.;.>.,.'.).!.~.{.].H ^.{.{./.(.{._.:.{.{.{.<.[.{.{.{.}.|.1.2.3.{.{.{.{.{.4.",
"5.5.5.5.6.7.8.9.0.a.9.b.H c.9.9.d.e.9.f.g.9.9.9.h.i.9.9.j.k.9.9.h.l.m.9.9.9.9.n.",
"o.o.o.o.p.q.r.s.t.u.v.w.H x.v.v.y.z.v.A.B.C.s.v.D.E.v.F.G.v.v.v.H.I.J.K.v.v.v.v.",
"L.L.L.L.M.N.O.P.Q.R.M.S.T.U.M.M.V.W.M.X.Y.Z.`.X. +.+M.++@+M.M.M.M.#+$+Y.%+M.M.M.",
"&+&+&+&+*+=+=+=+=+=+*+=+=+=+=+=+*+=+=+=+=+=+*+=+=+=+=+=+*+=+=+=+=+=+*+=+=+=+=+*+",
"-+-+-+-+-+-+-+-+-+-+-+-+-+-+-+-+-+-+-+-+-+-+-+-+-+-+-+-+-+-+-+-+-+-+-+-+-+-+-+;+",
">+>+>+>+>+>+>+>+>+>+>+>+>+>+>+>+>+>+>+>+>+>+>+>+>+>+>+>+>+>+>+>+>+>+>+>+>+>+>+,+"};
