/* XPM */
static char * start_menu_md_xpm[] = {
"60 24 285 2",
"  	c None",
". 	c #EFF2F8",
"+ 	c #E8EBF1",
"@ 	c #DFE2E7",
"# 	c #EAEDF3",
"$ 	c #E5E8ED",
"% 	c #D2D5DA",
"& 	c #97999D",
"* 	c #86888B",
"= 	c #CACDD2",
"- 	c #6A6B6E",
"; 	c #0F0F10",
"> 	c #09090A",
", 	c #6C6D70",
"' 	c #EDF0F6",
") 	c #D0D3D8",
"! 	c #28292A",
"~ 	c #D9DCE2",
"{ 	c #CACCD1",
"] 	c #9D9FA3",
"^ 	c #202021",
"/ 	c #000000",
"( 	c #C8CACF",
"_ 	c #D6D8DE",
": 	c #212122",
"< 	c #707174",
"[ 	c #E7EAF0",
"} 	c #333335",
"| 	c #B5B7BC",
"1 	c #A9ABAF",
"2 	c #646668",
"3 	c #E7E9EF",
"4 	c #C4C6CB",
"5 	c #070808",
"6 	c #020202",
"7 	c #B3B5BA",
"8 	c #5F6062",
"9 	c #7F8184",
"0 	c #EEF1F7",
"a 	c #EDF0F7",
"b 	c #ECEFF5",
"c 	c #AFB1B5",
"d 	c #B8BABF",
"e 	c #DDE0E6",
"f 	c #DEE1E7",
"g 	c #CFD2D7",
"h 	c #AFB2B6",
"i 	c #C9CBD0",
"j 	c #ECEFF6",
"k 	c #646568",
"l 	c #939498",
"m 	c #DFE2E8",
"n 	c #E1E4E9",
"o 	c #828387",
"p 	c #1E1E1F",
"q 	c #E3E6EB",
"r 	c #9A9CA0",
"s 	c #47484A",
"t 	c #EBEEF6",
"u 	c #ECEFF7",
"v 	c #C0C2C9",
"w 	c #1C1C1D",
"x 	c #343436",
"y 	c #616265",
"z 	c #040404",
"A 	c #78797D",
"B 	c #97999E",
"C 	c #393A3C",
"D 	c #050505",
"E 	c #6D6E72",
"F 	c #4D4E51",
"G 	c #404043",
"H 	c #353537",
"I 	c #28282A",
"J 	c #CDCFD6",
"K 	c #E7EAF2",
"L 	c #3F3F42",
"M 	c #1D1D1E",
"N 	c #292A2B",
"O 	c #57585B",
"P 	c #C9CBD2",
"Q 	c #7E8084",
"R 	c #070708",
"S 	c #232325",
"T 	c #E0E3EA",
"U 	c #E9ECF4",
"V 	c #3A3B3D",
"W 	c #C2C4CB",
"X 	c #262628",
"Y 	c #D9DCE4",
"Z 	c #E6E9F5",
"` 	c #E8EBF6",
" .	c #5F6064",
"..	c #4E4F52",
"+.	c #E6E9F4",
"@.	c #E4E7F2",
"#.	c #3D3E41",
"$.	c #B3B6BE",
"%.	c #B9BBC4",
"&.	c #0E0E0E",
"*.	c #B3B5BD",
"=.	c #84858C",
"-.	c #424346",
";.	c #68696E",
">.	c #989AA1",
",.	c #4F5054",
"'.	c #A5A7AF",
").	c #C6C9D3",
"!.	c #0B0B0B",
"~.	c #1F1F21",
"{.	c #B6B9C1",
"].	c #E2E6F3",
"^.	c #E1E6F3",
"/.	c #B1B5C0",
"(.	c #C7CBD6",
"_.	c #8F929A",
":.	c #696B71",
"<.	c #CED2DE",
"[.	c #2A2B2E",
"}.	c #DFE4F1",
"|.	c #DADFEB",
"1.	c #65686E",
"2.	c #9498A0",
"3.	c #93979F",
"4.	c #858890",
"5.	c #161718",
"6.	c #D3D8E4",
"7.	c #DEE3F2",
"8.	c #A6AAB5",
"9.	c #4C4D53",
"0.	c #CDD1DF",
"a.	c #2D2E31",
"b.	c #C7CCD9",
"c.	c #64666D",
"d.	c #92969F",
"e.	c #676970",
"f.	c #90939D",
"g.	c #70737A",
"h.	c #0E0E0F",
"i.	c #525459",
"j.	c #D9DFF1",
"k.	c #DAE0F0",
"l.	c #A3A8B4",
"m.	c #61646B",
"n.	c #36373B",
"o.	c #262729",
"p.	c #202124",
"q.	c #424448",
"r.	c #C9CEDD",
"s.	c #292A2D",
"t.	c #313236",
"u.	c #C1C7D5",
"v.	c #62656C",
"w.	c #90949E",
"x.	c #65686F",
"y.	c #8D919B",
"z.	c #A1A5B1",
"A.	c #303135",
"B.	c #BFC4D2",
"C.	c #0F1011",
"D.	c #9397A2",
"E.	c #D5DCEF",
"F.	c #D5DDEF",
"G.	c #5E6169",
"H.	c #36383D",
"I.	c #A5ABB9",
"J.	c #CDD5E7",
"K.	c #ACB3C1",
"L.	c #404348",
"M.	c #C4CCDC",
"N.	c #282A2D",
"O.	c #BDC4D4",
"P.	c #60646C",
"Q.	c #8C929D",
"R.	c #63666F",
"S.	c #8A8F9B",
"T.	c #B9C0D0",
"U.	c #878C98",
"V.	c #121214",
"W.	c #C2C9D9",
"X.	c #D1D9EE",
"Y.	c #BEC5D9",
"Z.	c #010101",
"`.	c #0B0C0D",
" +	c #CAD2E7",
".+	c #A9AFC0",
"++	c #3F4248",
"@+	c #C1C8DB",
"#+	c #27292D",
"$+	c #2F3135",
"%+	c #B9C0D3",
"&+	c #5E626B",
"*+	c #8A8F9D",
"=+	c #61646E",
"-+	c #878C9A",
";+	c #CDD5E9",
">+	c #323439",
",+	c #969CAB",
"'+	c #42454C",
")+	c #41434A",
"!+	c #CCD5EC",
"~+	c #B2B9CD",
"{+	c #131416",
"]+	c #CDD5EC",
"^+	c #A2A9BB",
"/+	c #3E4047",
"(+	c #BDC4D9",
"_+	c #27282C",
":+	c #2E3035",
"<+	c #B6BDD1",
"[+	c #646873",
"}+	c #818695",
"|+	c #5F636D",
"1+	c #858A99",
"2+	c #585B65",
"3+	c #686C77",
"4+	c #B8BFD4",
"5+	c #0E0E10",
"6+	c #7F8492",
"7+	c #C8D2EB",
"8+	c #C7D1E9",
"9+	c #2A2C31",
"0+	c #6C727F",
"a+	c #C6D0E7",
"b+	c #B7C0D6",
"c+	c #35373D",
"d+	c #3C3F47",
"e+	c #C8D2EA",
"f+	c #B8C2D8",
"g+	c #26282C",
"h+	c #2D2F34",
"i+	c #B1BACF",
"j+	c #878E9E",
"k+	c #454851",
"l+	c #C6D0E8",
"m+	c #B8C1D7",
"n+	c #5D616C",
"o+	c #818897",
"p+	c #848A9A",
"q+	c #3A3D44",
"r+	c #8990A1",
"s+	c #020203",
"t+	c #050506",
"u+	c #858B9B",
"v+	c #C4CFE9",
"w+	c #B0BAD1",
"x+	c #41454E",
"y+	c #0B0B0D",
"z+	c #0F0F11",
"A+	c #393C44",
"B+	c #A8B2C8",
"C+	c #5D626F",
"D+	c #565B66",
"E+	c #B8C2DA",
"F+	c #27292F",
"G+	c #444851",
"H+	c #4A4E58",
"I+	c #B2BCD4",
"J+	c #C3CEE8",
"K+	c #575C67",
"L+	c #0E0F10",
"M+	c #1A1C1F",
"N+	c #3F434B",
"O+	c #9BA4B9",
"P+	c #6F7684",
"Q+	c #8D95A7",
"R+	c #B5C0D8",
"S+	c #3B3F46",
"T+	c #B6C0D9",
"U+	c #8F97AA",
"V+	c #3A3E45",
"W+	c #50545F",
"X+	c #BBC5DE",
"Y+	c #C0CBE7",
"Z+	c #C0CCE7",
"`+	c #C0CCE8",
" @	c #C0CBE8",
".@	c #BCC8E6",
"+@	c #BCC8E5",
"@@	c #BCC7E6",
"#@	c #BBC7E6",
"$@	c #B7C4E5",
"%@	c #B7C4E4",
"&@	c #B3C0E3",
"*@	c #AFBDE2",
". . . . . . . . . . . . . . . . . . . . . . . . . . . . . . . . . . . . . . . . . . . . . . . . . . . . . . . . . . . . ",
". . . . . . . . . . . . . . . . . . . . . . . . . . . . . . . . . . . . . . . . . . . . . . . . . . . . . . . . . . . . ",
". . . . . . . . . . . . . . . . . . . . . . . . . . . . . . . . . . . . . . . . . . . . . . . . . . . . . . . . . . . . ",
". . . . . . . . . . . . . . . . . . . . . . . . . . . . . . . . . . . . . . . . . . . . . . . . . . . . . . . . . . . . ",
". . . . . . . . . . . . . . . . . . . . . . . . . . . . . . . . . . . . . . . + @ @ # . . . . . . . . $ + . . . . . . . ",
". . . . . . . . . . . . . . . . . . . . . . . . . . . . . . % @ . . . . & * . = - ; > , ' . . . . . ) ! ~ . . . . . . . ",
". . . . . . . . . . . . . . . . . . . . . . . . . . . . . { ; ] . . . . ^ / ( . . _ : / < . . . . [ } | . . . . . . . . ",
". . . . . . . . . . . . . . . . . . . . . . . . . . . . . , / ] . . . . 1 2 3 . . . 4 5 6 7 . . . 8 9 . . . . . . . . . ",
"0 0 0 0 0 0 a 0 b ( c d e 0 0 a @ f 3 0 0 g h i j 0 0 0 f k / l f m [ f n 0 0 0 0 0 a o / p q 0 r s ' a 0 0 0 0 0 0 0 0 ",
"t t t t t t u v w x y x z A t u B C D E F G H / I J t K L M / N L O P Q R S T t t t u U V / k W X Y t u t t t t t t t t ",
"Z Z Z Z Z Z `  ...+.+.@.#./ $.` +.%./ &.*.+.+.=./ -.+.+.+.;./ >.+.` +.+.,./ '.+.+.+.` +.).!.6 ~.{.+.+.` +.+.+.+.+.+.+.+.",
"].].].].].].^./.(.^.^.^._./ :.^.^.<./ [.^.^.^.}.; z |.^.^.1./ 2.^.^.^.^.1./ 3.^.^.^.^.^.^.4./ 5.6.^.^.^.^.^.^.^.^.^.^.^.",
"7.7.7.7.7.7.7.7.7.7.7.7.8./ 9.7.7.0./ [.7.7.7.7.a./ b.7.7.c./ d.7.7.7.7.e./ f.7.7.7.7.7.7.g.h./ i.7.7.7.7.7.7.7.7.7.7.7.",
"j.j.j.j.j.j.k.k.l.m.n.o.p./ q.k.k.r./ s.k.k.k.k.t./ u.k.k.v./ w.k.k.k.k.x./ y.k.k.k.k.k.z.A.B.C./ D.k.k.k.k.k.k.k.k.k.k.",
"E.E.E.E.E.E.F.G./ H.I.J.K./ L.F.F.M./ N.F.F.F.F.A./ O.F.F.P./ Q.F.F.F.F.R./ S.F.F.F.F.O.p.T.F.U./ V.W.F.F.F.F.F.F.F.F.F.",
"X.X.X.X.X.X.Y.Z.`. +X.X..+/ ++X.X.@+/ #+X.X.X.X.$+/ %+X.X.&+/ *+X.X.X.X.=+/ -+X.X.X.;+>+,+X.X.X.'+/ )+X.X.X.X.X.X.X.X.X.",
"!+!+!+!+!+!+~+/ {+]+]+]+^+/ /+]+]+(+/ _+]+]+]+]+:+/ <+]+]+[+/ }+]+]+]+]+|+/ 1+]+]+]+2+3+]+]+]+]+4+5+/ 6+]+]+]+]+]+]+]+]+",
"7+7+7+7+7+7+8+9+/ 0+a+b+c+/ d+e+e+f+/ g+e+e+e+e+h+/ i+e+e+j+/ k+8+l+m+e+n+/ o+e+e+p+q+l+e+e+e+e+e+r+s+t+u+e+e+e+e+e+e+e+",
"v+v+v+v+v+v+v+w+x+y+z+A+B+C+D+v+v+E+F+G+v+v+v+v+H+F+I+v+v+J+K+L+M+N+O+v+P+F+Q+v+R+S+T+v+v+v+v+v+v+v+U+V+F+W+X+v+v+v+v+v+",
"Y+Y+Y+Y+Y+Z+`+ @ @ @ @ @ @ @ @`+ @ @ @ @ @ @ @ @`+ @ @ @ @ @ @ @ @`+ @ @ @ @ @ @ @ @`+ @ @ @ @ @ @ @ @`+ @ @ @ @ @ @ @ @",
".@+@.@.@.@.@.@@@@@@@@@#@#@#@#@.@@@@@@@@@#@#@#@#@.@@@@@@@@@#@#@#@#@.@@@@@@@@@#@#@#@#@.@@@@@@@@@#@#@#@#@.@@@@@@@@@#@#@#@#@",
"$@%@%@$@$@$@%@%@$@$@$@$@$@$@$@%@%@$@$@$@$@$@$@$@%@%@$@$@$@$@$@$@$@%@%@$@$@$@$@$@$@$@%@%@$@$@$@$@$@$@$@%@%@$@$@$@$@$@$@$@",
"&@&@&@&@&@&@&@&@&@&@&@&@&@&@&@&@&@&@&@&@&@&@&@&@&@&@&@&@&@&@&@&@&@&@&@&@&@&@&@&@&@&@&@&@&@&@&@&@&@&@&@&@&@&@&@&@&@&@&@&@",
"*@*@*@*@*@*@*@*@*@*@*@*@*@*@*@*@*@*@*@*@*@*@*@*@*@*@*@*@*@*@*@*@*@*@*@*@*@*@*@*@*@*@*@*@*@*@*@*@*@*@*@*@*@*@*@*@*@*@*@*@"};
